<?xml version="1.0" encoding="utf-8"?>
<!-- Generator: Adobe Illustrator 14.0.0, SVG Export Plug-In . SVG Version: 6.00 Build 43363)  -->
<!DOCTYPE svg PUBLIC "-//W3C//DTD SVG 1.0//EN" "http://www.w3.org/TR/2001/REC-SVG-20010904/DTD/svg10.dtd">
<svg version="1.0" id="Layer_1" xmlns="http://www.w3.org/2000/svg" x="0px" y="0px"
	 width="1000px" height="270px" viewBox="0 0 1000 270" style="enable-background:new 0 0 1000 270;"
	 xml:space="preserve">
<style type="text/css">
<![CDATA[
	.st0{fill:#FF6900;}
	.st1{fill:#07214C;}
]]>
</style>
<path class="st0" d="M166.479,110.355c-1.648-1.815-3.737-2.808-6.039-2.877c-2.979-0.079-6.068,1.353-8.944,4.166
	c-11.058,10.819-22.105,21.649-33.143,32.492c-4.866,4.775-9.724,9.565-14.697,14.473l-5.57,5.488l-6.839-7.014
	c-6.236-6.397-12.373-12.692-18.523-18.973c-5.186-5.295-10.751-6.101-14.886-2.16c-1.762,1.678-2.715,3.765-2.755,6.037
	c-0.052,2.943,1.415,6.025,4.238,8.914c9.887,10.105,19.779,20.212,29.692,30.296c3.027,3.082,6.017,4.621,9.011,4.621
	c2.901,0,5.805-1.445,8.754-4.333c19.247-18.861,38.478-37.738,57.7-56.623C169.424,120.001,170.19,114.443,166.479,110.355"/>
<path class="st1" d="M145.676,154.294l-14.589,14.31l10.788,26.314c0.794,1.798,1.965,3.268,3.471,4.365
	c1.566,1.151,3.409,1.737,5.473,1.737c2.463,0,4.646-0.83,6.482-2.467c1.911-1.691,2.88-3.926,2.88-6.646
	c0-0.835-0.181-1.956-0.636-3.706L145.676,154.294z"/>
<path class="st1" d="M94.633,29.514c-0.795-1.787-1.961-3.255-3.467-4.361c-1.573-1.153-3.417-1.739-5.478-1.739
	c-4.417,0-7.604,2.133-9.209,6.153L11.305,189.058c-0.241,0.707-0.352,1.613-0.352,2.851l0.006,0.898
	c0.2,2.444,1.056,4.434,2.535,5.906c1.518,1.53,3.731,2.308,6.574,2.308c2.74,0,6.433-1.071,8.473-6.16l18.269-45.17l5.667-14.53
	l32.238-79.911l32.398,79.136l14.574-14.291L94.633,29.514z"/>
<path class="st1" d="M278.571,78.357c-9.161-5.677-19.468-8.559-30.637-8.559c-9.997,0-19.282,2.322-27.597,6.907
	c-6.282,3.465-11.506,7.941-15.593,13.358V79.902c0-2.647-0.886-4.924-2.632-6.776c-1.778-1.881-4.043-2.834-6.73-2.834
	c-2.69,0-4.952,0.956-6.721,2.832c-1.752,1.847-2.642,4.127-2.642,6.779v160.852c0,2.666,0.9,4.916,2.676,6.69
	c1.771,1.772,4.021,2.671,6.687,2.671c2.664,0,4.914-0.898,6.696-2.674c1.77-1.774,2.667-4.024,2.667-6.688V181.75
	c4.406,5.51,9.837,10.107,16.196,13.711c8.232,4.671,17.399,7.04,27.24,7.04c11.178,0,21.449-2.927,30.532-8.696
	c9.054-5.75,16.258-13.764,21.413-23.823c5.137-10.026,7.742-21.492,7.742-34.079c0-12.422-2.605-23.803-7.742-33.831
	C294.969,92.013,287.717,84.034,278.571,78.357 M289.642,135.902c0,9.35-1.881,17.854-5.592,25.277
	c-3.691,7.375-8.854,13.218-15.34,17.354v0.003c-6.472,4.133-13.877,6.229-22.01,6.229c-8.305,0-15.84-2.096-22.393-6.236
	c-6.568-4.136-11.722-9.966-15.326-17.334c-3.631-7.421-5.472-15.93-5.472-25.292c0-9.353,1.839-17.821,5.467-25.157
	c3.601-7.285,8.755-13.036,15.317-17.093c6.561-4.059,14.101-6.118,22.406-6.118c8.127,0,15.531,2.097,22.01,6.231
	c6.492,4.144,11.653,9.944,15.345,17.245C287.761,118.351,289.642,126.725,289.642,135.902"/>
<path class="st1" d="M345.379,14.291c-2.665,0-4.915,0.896-6.687,2.666c-1.773,1.776-2.67,4.025-2.67,6.691V191.41
	c0,2.674,0.898,4.927,2.67,6.694c1.766,1.768,4.019,2.667,6.687,2.667c2.666,0,4.915-0.895,6.688-2.662l0.006-0.008
	c1.77-1.775,2.667-4.029,2.667-6.691V23.648c0-2.655-0.896-4.905-2.674-6.696C350.289,15.187,348.04,14.291,345.379,14.291"/>
<path class="st1" d="M400.149,68.566c-2.657,0-4.908,0.896-6.696,2.674c-1.768,1.775-2.665,4.025-2.665,6.688V191.41
	c0,2.667,0.896,4.916,2.669,6.699c1.776,1.768,4.027,2.662,6.691,2.662c2.665,0,4.916-0.895,6.691-2.662l0.006-0.008
	c1.768-1.775,2.666-4.024,2.666-6.691V77.929c0-2.663-0.897-4.913-2.673-6.696C405.057,69.462,402.807,68.566,400.149,68.566"/>
<path class="st1" d="M400.398,31.312c-3.742,0-6.778,0.94-9.024,2.792c-2.351,1.947-3.542,4.737-3.542,8.294v2.467
	c0,3.546,1.14,6.328,3.386,8.267c2.162,1.871,5.168,2.819,8.931,2.819c3.779,0,6.755-0.959,8.842-2.854
	c2.142-1.938,3.229-4.71,3.229-8.232v-2.467C412.22,35.247,408.021,31.312,400.398,31.312"/>
<path class="st1" d="M495.253,128.664l49.373-41.957c2.185-2.188,3.29-4.56,3.29-7.054c0-2.312-0.931-4.469-2.767-6.41
	c-3.853-4.07-9.562-3.658-12.809-0.011l-68.066,58.645V23.648c0-2.659-0.896-4.908-2.671-6.694c-1.78-1.768-4.029-2.664-6.689-2.664
	c-2.665,0-4.915,0.896-6.688,2.667c-1.77,1.775-2.667,4.025-2.667,6.691V191.41c0,2.67,0.896,4.924,2.667,6.694
	c1.768,1.768,4.019,2.667,6.688,2.667c2.665,0,4.916-0.895,6.696-2.67c1.768-1.775,2.665-4.024,2.665-6.691v-36.349l16.397-13.993
	l53.158,56.269c1.851,2.279,4.188,3.435,6.943,3.435c1.932,0,3.966-0.85,6.045-2.533c2.2-1.785,3.314-4.085,3.314-6.828
	c0-2.617-0.915-4.966-2.746-7.009L495.253,128.664z"/>
<path class="st1" d="M677.723,74.194c-1.781-1.771-4.034-2.669-6.688-2.669c-2.657,0-4.907,0.898-6.684,2.669
	c-1.773,1.768-2.672,4.017-2.672,6.691v69.574c0,11.236-2.995,19.853-8.904,25.61c-5.925,5.77-14.475,8.695-25.405,8.695
	c-10.769,0-19.188-2.923-25.027-8.685c-5.833-5.758-8.789-14.377-8.789-25.621V80.885c0-2.663-0.897-4.912-2.675-6.691
	c-1.783-1.771-4.032-2.669-6.683-2.669c-2.663,0-4.914,0.898-6.691,2.669c-1.77,1.768-2.669,4.021-2.669,6.691v69.574
	c0,16.601,4.726,29.566,14.044,38.541c9.301,8.96,22.25,13.501,38.49,13.501c16.391,0,29.466-4.541,38.854-13.497
	c9.402-8.983,14.175-21.952,14.175-38.545V80.885c0-2.663-0.897-4.912-2.67-6.688L677.723,74.194z"/>
<path class="st1" d="M728.024,31.066c-3.743,0-6.78,0.941-9.022,2.793c-2.354,1.944-3.543,4.733-3.543,8.294v2.469
	c0,3.545,1.138,6.327,3.386,8.263c2.168,1.874,5.175,2.822,8.934,2.822c3.775,0,6.75-0.959,8.841-2.854
	c2.145-1.938,3.23-4.71,3.23-8.231v-2.469C739.849,35.002,735.651,31.066,728.024,31.066"/>
<path class="st1" d="M727.776,71.279c-2.666,0-4.914,0.899-6.696,2.674c-1.768,1.782-2.665,4.033-2.665,6.688v127.304
	c0,6.512-1.849,11.741-5.496,15.541c-3.728,3.875-8.479,6.381-14.079,7.443c-2.396,0.395-4.349,1.386-5.806,2.943
	c-1.495,1.609-2.253,3.592-2.253,5.895v0.987c0,2.499,0.861,4.625,2.551,6.319c1.69,1.691,3.816,2.55,6.322,2.55
	c5.896,0,11.818-1.618,17.602-4.81c5.776-3.194,10.58-7.824,14.279-13.754c3.721-5.972,5.604-13,5.604-20.896V80.64
	c0-2.663-0.898-4.913-2.675-6.692C732.686,72.178,730.438,71.279,727.776,71.279"/>
<path class="st1" d="M780.329,172.679h-1.729c-3.361,0-6.01,1.05-7.865,3.115c-1.812,2.012-2.731,4.777-2.731,8.217v5.181
	c0,3.429,0.909,6.221,2.699,8.311c1.86,2.168,4.517,3.27,7.897,3.27h1.729c3.385,0,6.042-1.102,7.896-3.27
	c1.787-2.082,2.693-4.879,2.693-8.311v-5.181c0-3.447-0.916-6.209-2.721-8.214C786.335,173.729,783.689,172.679,780.329,172.679"/>
<path class="st1" d="M911.874,78.357c-9.16-5.677-19.469-8.559-30.639-8.559c-9.997,0-19.28,2.322-27.596,6.907
	c-6.281,3.465-11.507,7.941-15.595,13.358V79.902c0-2.647-0.884-4.924-2.63-6.776c-1.781-1.881-4.045-2.834-6.731-2.834
	c-2.688,0-4.951,0.956-6.72,2.832c-1.752,1.847-2.643,4.127-2.643,6.779v160.852c0,2.666,0.901,4.916,2.675,6.69
	c1.771,1.772,4.021,2.671,6.688,2.671c2.662,0,4.915-0.898,6.694-2.674c1.772-1.774,2.667-4.024,2.667-6.688V181.75
	c4.407,5.51,9.838,10.107,16.197,13.711c8.233,4.671,17.397,7.04,27.242,7.04c11.177,0,21.447-2.927,30.529-8.696
	c9.057-5.754,16.26-13.769,21.412-23.823c5.138-10.026,7.743-21.492,7.743-34.079c0-12.422-2.605-23.803-7.743-33.831
	C928.272,92.013,921.021,84.034,911.874,78.357 M922.942,135.902c0,9.35-1.88,17.854-5.59,25.277
	c-3.69,7.375-8.854,13.218-15.342,17.354v0.003c-6.471,4.133-13.878,6.229-22.01,6.229c-8.305,0-15.837-2.096-22.39-6.236
	c-6.566-4.136-11.725-9.966-15.326-17.334c-3.631-7.421-5.475-15.93-5.475-25.292c0-9.353,1.843-17.821,5.472-25.157
	c3.598-7.285,8.752-13.036,15.315-17.093c6.562-4.059,14.099-6.118,22.403-6.118c8.126,0,15.533,2.097,22.01,6.231
	c6.492,4.144,11.656,9.944,15.345,17.245C921.065,118.346,922.942,126.725,922.942,135.902"/>
<path class="st1" d="M985.368,16.954c-1.778-1.768-4.027-2.662-6.688-2.662c-2.665,0-4.913,0.895-6.687,2.665
	c-1.771,1.776-2.669,4.024-2.669,6.691V191.41c0,2.674,0.898,4.927,2.669,6.694c1.77,1.768,4.019,2.667,6.687,2.667
	c2.667,0,4.916-0.895,6.691-2.662l0.006-0.008c1.77-1.775,2.667-4.029,2.667-6.691V23.647
	C988.043,20.994,987.146,18.743,985.368,16.954"/>
</svg>
