<?xml version="1.0" encoding="utf-8"?>
<!-- Generator: Adobe Illustrator 16.0.0, SVG Export Plug-In . SVG Version: 6.00 Build 0)  -->
<!DOCTYPE svg PUBLIC "-//W3C//DTD SVG 1.1//EN" "http://www.w3.org/Graphics/SVG/1.1/DTD/svg11.dtd">
<svg version="1.1" id="Layer_1" xmlns="http://www.w3.org/2000/svg" xmlns:xlink="http://www.w3.org/1999/xlink" x="0px" y="0px"
	 width="400px" height="125.503px" viewBox="0 0 400 125.503" enable-background="new 0 0 400 125.503" xml:space="preserve">
<g>
	<g>
		<path fill="#CE2028" d="M381.652,18.529c-5.789-5.877-12.468-10.421-20.039-13.717c-7.749-3.206-15.854-4.898-24.315-4.809
			c-0.179,0-0.268,0-0.356,0H63.237c-0.088,0-0.177,0-0.355,0c-8.462-0.09-16.657,1.603-24.404,4.809
			c-7.571,3.296-14.162,7.839-19.952,13.717c-5.79,5.701-10.332,12.38-13.538,19.862C1.692,46.14,0.089,54.335,0,62.884
			C0.089,71.346,1.692,79.452,4.988,87.2c3.206,7.57,7.748,14.161,13.538,19.951s12.381,10.331,19.952,13.538
			c7.748,3.205,15.942,4.897,24.404,4.811h274.416c8.462,0.087,16.566-1.605,24.315-4.811c7.571-3.207,14.25-7.748,20.039-13.538
			c5.79-5.79,10.333-12.381,13.54-19.951C398.397,79.452,400,71.346,400,62.884c0-8.549-1.604-16.744-4.809-24.493
			C391.985,30.909,387.442,24.23,381.652,18.529z"/>
		<g>
			<path fill="#FFFFFF" d="M21.376,21.29C9.797,32.78,4.007,46.674,4.007,62.884c0,16.122,5.79,30.017,17.369,41.508
				c5.344,5.343,11.579,9.528,18.615,12.557c7.303,3.029,14.963,4.632,22.89,4.632c16.209,0,30.016-5.79,41.505-17.188
				c11.58-11.491,17.279-25.386,17.369-41.508c-0.09-16.21-5.79-30.104-17.369-41.594C92.897,9.889,79.091,4.1,62.882,4.1
				C46.671,4.1,32.777,9.889,21.376,21.29z M7.66,48.455c3.296-11.579,9.797-19.951,19.417-25.206l37.052-0.534l-0.09-14.161
				l56.381,54.33l-56.381,54.064l0.09-14.161l-37.052-0.534C17.457,96.998,10.956,89.07,7.66,78.471
				c-1.158-3.294-1.781-6.769-2.138-10.243l-0.177-4.185C5.078,59.413,5.878,54.157,7.66,48.455z"/>
			<g>
				<path fill="#FFFFFF" d="M293.656,83.726v-1.692c-1.248,0-1.782-0.712-1.782-2.048c0-0.624,0.178-1.424,0.534-2.226
					c-1.07-1.159-1.961-2.761-2.583-4.722c-1.067-2.761-1.692-4.453-2.049-4.987c0.624-0.714,0.981-1.336,0.981-1.87
					c0-0.533-0.446-1.158-1.248-1.96c-0.979-0.712-1.424-1.424-1.424-2.048s0.177-1.158,0.532-1.604
					c1.069-1.692,2.049-4.274,3.028-7.57c0.892-3.385,1.782-5.879,2.762-7.304c-0.178-0.713-0.267-1.335-0.267-1.692
					c0-0.623,0.178-1.425,0.712-2.315c0.534-0.803,0.803-1.514,0.803-2.049c0-0.802-0.445-1.514-1.248-2.227
					c-0.356,0.179-0.802,0.179-1.247,0.267c-1.336,0-3.207-0.357-5.789-0.979c-2.495-0.802-4.453-1.158-5.789-1.158
					c0.268,1.959-0.357,3.028-1.96,3.028c-1.871,0-3.385-0.802-4.453-2.494c-0.444,0-1.159-0.089-2.049-0.356
					c-0.803-0.178-1.425-0.268-1.959-0.178c-1.336-0.09-2.139,0.623-2.317,1.87c-0.622-0.356-1.336-0.535-2.136-0.535h-1.962
					c-0.89,0-1.602-0.177-2.225-0.802c-2.049,3.742-3.029,6.592-3.029,8.641c0,1.246,0.268,2.493,0.98,3.563
					c-0.535,1.603-0.891,3.384-0.801,5.345c0,1.068,0.088,2.761,0.533,4.899c0.268,2.404,0.356,4.008,0.268,5.076
					c0.089,1.959-0.268,3.919-1.158,5.612c0.891,1.067,1.247,2.315,1.158,3.739c0.089,0.714,0,1.781-0.268,3.385
					c-0.445,1.515-0.533,2.672-0.533,3.473c-0.09,1.158,0.266,2.139,0.801,2.94v1.604c0.089,1.869-0.09,3.205-0.535,4.274
					c0.445,0.979,1.516,1.692,2.939,1.87c1.781,0.268,2.85,0.713,3.385,1.247c0.801-1.336,1.96-2.048,3.563-2.048
					c0.8,0.088,1.87,0.266,3.117,0.534c1.691,0.267,2.761,0.356,3.295,0.356c0.802,0,1.514-0.09,2.138-0.268
					c0-1.158,0.178-1.692,0.534-1.604c0.357,0,0.979,0.268,1.692,0.802c0.802,0.535,1.426,0.802,1.782,0.713
					c0.444,0,0.711-0.178,1.067-0.534l9.531,2.048C292.942,89.428,293.833,86.754,293.656,83.726z M287.776,52.108
					c-0.178-0.179-0.355-0.357-0.267-0.624c-0.089-0.179,0.089-0.446,0.267-0.624c0.356,0.178,0.535,0.445,0.535,0.624
					C288.311,51.751,288.132,51.929,287.776,52.108z M290.983,39.994c0.354,0.179,0.534,0.445,0.623,0.713
					c-0.089,0.089-0.269,0.267-0.623,0.446c-0.268-0.179-0.356-0.357-0.356-0.446C290.626,40.439,290.715,40.172,290.983,39.994z
					 M272.634,38.035c0.268,0.267,0.444,0.534,0.444,0.713c0,0.267-0.177,0.444-0.444,0.712c-0.355-0.268-0.534-0.445-0.445-0.712
					C272.1,38.569,272.279,38.302,272.634,38.035z M261.055,38.035c0.268,0.267,0.445,0.534,0.356,0.713
					c0.089,0.267-0.089,0.444-0.356,0.712c-0.355-0.268-0.445-0.445-0.445-0.712C260.61,38.569,260.7,38.302,261.055,38.035z
					 M259.274,45.07c0.268,0.179,0.356,0.446,0.268,0.624c0.089,0.178,0,0.445-0.268,0.712c-0.445-0.267-0.623-0.534-0.623-0.712
					S258.829,45.249,259.274,45.07z M259.274,56.65c0.268,0.178,0.356,0.445,0.268,0.713c0.089,0.177,0,0.356-0.268,0.445
					c-0.445-0.088-0.623-0.268-0.623-0.445C258.651,57.095,258.829,56.828,259.274,56.65z M259.274,80.877
					c-0.445-0.18-0.623-0.357-0.623-0.534c0-0.27,0.178-0.445,0.623-0.714c0.268,0.269,0.356,0.444,0.268,0.714
					C259.63,80.52,259.542,80.697,259.274,80.877z M260.522,88.625c-0.357-0.267-0.535-0.535-0.624-0.711
					c0.089-0.179,0.267-0.447,0.624-0.714c0.267,0.267,0.355,0.535,0.355,0.714C260.877,88.09,260.789,88.358,260.522,88.625z
					 M263.55,89.694c-0.269-0.179-0.446-0.444-0.446-0.624c0-0.178,0.178-0.356,0.446-0.445c0.356,0.089,0.533,0.268,0.533,0.445
					C264.083,89.338,263.907,89.516,263.55,89.694z M272.634,88.625h-0.445c-0.712,0-1.068-0.267-1.068-0.89
					c0-0.18,0.089-0.357,0.269-0.535l0.354-0.089c0.536,0,0.892,0.355,0.892,0.979V88.625z M276.375,86.042
					c-0.356-0.268-0.534-0.534-0.534-0.712c0-0.356,0.178-0.534,0.534-0.625c0.266,0.091,0.445,0.356,0.534,0.625
					C276.821,85.508,276.641,85.774,276.375,86.042z M286.618,89.694c-0.355-0.179-0.532-0.444-0.532-0.624
					c0-0.178,0.177-0.356,0.532-0.445c0.268,0.089,0.446,0.268,0.535,0.445C287.064,89.25,286.885,89.516,286.618,89.694z
					 M291.606,87.2l-1.247,0.445c-0.623-0.09-1.514-0.356-2.583-0.979c-1.069-0.446-1.87-0.713-2.404-0.624
					c-0.892-0.089-1.336,0.802-1.425,2.583c-0.802,0-1.248-0.178-1.248-0.711c0-0.179,0.178-0.536,0.357-1.16
					c0.178-0.356,0.267-0.712,0.267-0.891c0-0.445-0.355-0.712-1.068-0.802l-0.803,0.269c-0.266,0.267-0.533,0.712-0.802,1.336
					c-0.354,0.623-0.8,0.979-1.067,1.248c-0.446-0.358-0.714-0.981-0.714-2.051c-0.089-1.158-0.177-1.959-0.267-2.314
					c-0.355-0.891-1.07-1.337-2.227-1.516c0.623-0.8,0.892-1.425,0.892-1.87c0-0.444-0.269-1.157-0.892-1.958
					c-0.179,0.176-0.445,0.266-0.713,0.266c-0.266,0-0.712-0.177-1.247-0.534c-0.534-0.444-0.979-0.623-1.246-0.623
					c-0.268,0-0.356,0.179-0.535,0.446l-0.089,1.336c-0.089,0.711,0.18,1.067,0.624,1.067c0.892,0,1.336,0.269,1.336,0.802v0.534
					l-0.624,0.089c-0.534,0-0.979-0.089-1.513-0.354c-0.715,0-0.979,0.446-0.979,1.245c0,1.07,0.444,1.604,1.245,1.604l0.713-0.088
					c0.445,0,0.623,0.177,0.623,0.623l-0.178,0.713c-0.803-0.625-1.336-0.891-1.871-0.979c-0.623,0-1.247,0.623-1.78,1.959
					c-0.624,1.246-1.248,1.87-1.781,1.87c-0.534,0-1.248-0.444-2.138-1.514c-0.446,0.445-0.891,0.623-1.336,0.534
					c-0.446,0.089-1.159-0.268-2.14-0.891c-0.802-0.713-1.513-1.068-1.958-0.979h-0.267c0.979-1.336,1.423-2.761,1.423-4.097
					c0-1.427-0.444-2.763-1.423-4.188c-0.535,0.269-0.892,0.09-0.98-0.444l0.268-0.892l1.246-0.622
					c-0.267-0.713-0.355-1.336-0.267-1.78c-0.089-0.357,0-0.803,0.089-1.516c0.178-0.712,0.356-1.336,0.356-1.871
					c0-0.891-0.534-1.246-1.516-1.246c-0.444,0-0.8,0-1.245,0.179c0.178-0.268,0.534-0.356,0.98-0.356l1.602,0.268
					c0.445-0.09,0.713-0.445,0.713-1.158c0-0.445-0.445-1.068-1.246-1.958c-0.535,0.266-0.892,0-0.98-0.714l0.268-0.802l1.246-0.445
					c-0.178-0.356-0.178-0.803-0.178-1.336c0-0.623,0.09-1.424,0.356-2.583c0.357-1.336,0.445-2.227,0.534-2.85
					c0-1.336-0.623-2.315-1.959-2.94l-0.091-0.177c0-0.268,0.18-0.713,0.625-1.248c0.445-0.445,0.624-0.891,0.712-1.157
					c0-0.535-0.445-0.891-1.246-1.248c0.979-0.356,1.425-1.158,1.425-2.315l-0.179-1.604c0-0.713,0.179-1.248,0.713-1.604
					c-0.177-0.446-0.534-0.802-1.158-1.158c-0.712-0.178-1.068-0.444-1.068-0.712l0.268-0.802c0.178,0,0.446,0.09,0.801,0.09
					c0.802,0,1.604-0.536,2.494-1.515c0.714-0.891,1.336-1.336,1.782-1.336c0.445,0,0.89,0.268,1.336,0.801l0.89-0.268
					c0.446,0,1.248,0.179,2.139,0.536c0.891,0.267,1.603,0.445,2.227,0.445h1.157v3.385c0,0.712,0.179,1.514,0.535,2.314
					c0.355-0.177,0.623-0.177,0.801-0.177c0.179,0,0.356,0.177,0.535,0.713c0.177,0.445,0.534,0.713,0.98,0.8h0.266
					c0.356-0.444,1.069-1.87,1.871-4.275c0.802-1.87,1.691-3.117,2.673-3.474c0.266,0.268,0.533,0.356,0.891,0.356
					c0.445,0,1.245-0.266,2.314-0.89c-0.178-0.178-0.178-0.445-0.178-0.624c0-0.534,0.267-0.891,0.801-0.801
					c0.534,0,0.891,0.267,0.802,0.713c0.089,0.178,0,0.444-0.268,0.712c-0.354,0.088-0.534,0.266-0.534,0.534
					c-0.088,0.356,0.356,0.713,1.248,1.159c0.268-0.179,0.534-0.624,0.891-1.248c0.444-0.534,0.802-0.89,1.158-1.157
					c0.267,0.267,0.533,1.336,0.801,3.027c0.179,1.336,0.891,2.049,2.049,1.96h0.268v0.357c0,0.624-0.356,0.89-1.159,0.979
					l-1.78-0.177c-0.268,0.088-0.445,0.268-0.445,0.534c-0.089,0.267,0.178,0.802,0.623,1.604c0.981-0.178,1.427,0,1.516,0.711
					l-0.18,0.536c-0.267,0.088-0.623,0.177-1.068,0.177c-0.178,0-0.356-0.089-0.623-0.177l-0.535-0.178
					c-0.355,0-0.711,0.267-0.979,0.801c0.269,0.535,0.356,1.069,0.356,1.515c0,0.534-0.268,1.157-0.713,1.78
					c-0.535,0.625-0.711,1.159-0.711,1.427c-0.09,0.446,0.266,0.534,1.067,0.534l1.515-0.18c0.089,0.802-0.179,1.248-0.535,1.159
					c-0.355,0-0.711-0.088-1.157-0.268c-0.445-0.178-0.803-0.267-1.07-0.267c-0.534,0-0.979,0.446-1.157,1.336
					c1.338,0.535,2.315,1.069,2.762,1.603c0.089,0.268-0.534,0.536-1.871,0.89c-1.335,0.357-2.048,0.803-2.137,1.336
					c0.089,0.356,0.533,0.802,1.335,1.247c0.891,0.534,1.336,1.069,1.336,1.515c0,0.446-0.087,1.068-0.356,2.047
					c-0.356,0.893-0.445,1.692-0.445,2.228c0,0.979,0.534,1.692,1.782,2.049c0.089,0,0.18,0.089,0.18,0.267
					c0,0.268-0.091,0.712-0.357,1.158c-0.269,0.713-0.445,1.159-0.445,1.514c0,0.713,0.533,1.158,1.692,1.247
					c1.157,0.18,1.691,0.444,1.691,0.891l-0.178,0.713l-0.445,0.089c-0.178,0-0.534-0.177-0.891-0.445
					c-0.356-0.356-0.714-0.444-1.067-0.444c-0.536,0-0.803,0.444-0.803,1.246c0,0.891,0.623,1.425,1.87,1.692
					c1.158,0.355,1.87,0.8,1.959,1.426h1.426c-0.179,0.266-0.356,0.356-0.535,0.356l-0.979-0.181
					c-0.356-0.087-0.712-0.176-0.979-0.176c-0.534,0-0.891,0.444-0.802,1.424c-0.089,0.269,0.089,0.624,0.356,0.979l0.891,0.891
					c0.178-0.444,0.356-0.622,0.623-0.622c0.444,0,0.891,0.356,1.426,1.156c-0.624,0.802-0.892,1.427-0.892,1.961
					c0,0.533,0.268,1.157,0.892,2.048c0.8-0.268,1.157,0,1.157,0.712L291.606,87.2z M263.104,49.079c0.178,0,0.268,0,0.446-0.179
					h-1.068C262.747,49.079,263.016,49.079,263.104,49.079z M261.768,51.484c0.177,0.177,0.356,0.177,0.446,0.177
					c0.178,0,0.178,0,0.268,0v-0.177H261.768z M278.335,46.406c0.356,0.09,0.533,0.179,0.801,0.268
					c0.089-0.088,0.268-0.177,0.446-0.268H278.335z M274.505,52.196c0.089-0.979,0.089-1.602,0.177-1.78
					c0.179-0.535,0.624-0.802,1.515-0.802l1.692,0.088l0.446-0.088c-0.535,0-1.426-0.268-2.673-0.891
					c-1.336-0.623-2.404-0.98-3.028-0.98c0.891,0.357,1.247,1.07,1.247,2.05l-0.089,3.029h0.269
					C274.327,52.821,274.505,52.642,274.505,52.196z M274.951,71.168h-0.445c0.177,0.269,0.355,0.357,0.445,0.446V71.168z
					 M275.751,76.334c0.624,0,0.98,0.267,1.158,0.711c0.089-0.177,0.089-0.444,0.178-0.711c0-0.444-0.446-0.802-1.336-0.98
					l-1.959-0.267c-0.179,0.356-0.179,0.534-0.268,0.622c0,0.446,0.356,0.625,0.98,0.625H275.751z M263.55,71.346v-0.178h-0.624
					c0.355,0.269,0.535,0.357,0.624,0.446C263.55,71.525,263.638,71.525,263.55,71.346z"/>
				<g>
					<path fill="#FFFFFF" d="M254.02,81.233c-0.091-0.98-0.713-1.692-2.049-1.962c1.067-5.164,1.692-8.281,1.869-9.352
						c-0.177-0.356-0.533-0.71-1.067-0.979c-0.625-0.356-1.07-0.623-1.247-0.891c0.445-0.534,0.713-1.158,0.801-1.604
						c0-0.622-0.355-1.424-0.979-2.314c-0.713-0.979-1.158-1.782-1.158-2.315c0-0.268,0.445-1.693,1.513-4.276
						c0.981-2.761,1.516-4.186,1.692-4.363v-0.446c0-0.891-0.356-1.96-0.979-3.296c-0.713-1.426-1.067-2.494-1.067-3.207
						c0-2.583-0.713-4.275-1.961-5.076l-5.433-2.317c-1.336,0.09-3.206-0.356-5.701-1.158c-2.492-0.891-4.452-1.247-5.7-1.247
						h-0.266c-0.18,0.356-0.534,0.713-1.07,1.159c-0.445,0.355-0.8,0.534-1.157,0.534c-0.533,0-1.247-0.179-2.226-0.534
						c-1.07-0.445-1.782-0.713-2.316-0.713c-0.713,0-1.427,0.268-1.96,0.802c-0.802-0.534-1.337-0.802-1.693-0.802
						c-0.8,0-1.425,0.802-1.87,2.494c-0.533,1.87-0.979,3.028-1.424,3.385c1.336,0.712,1.958,1.96,1.958,3.651l-0.089,1.158
						c-0.891,1.158-1.245,2.496-1.245,4.276c0,1.514,0.354,3.652,1.245,6.145c-0.891,0.356-1.245,1.248-1.245,2.583v3.474
						c0.178,1.426,0.534,2.403,1.245,2.85c-0.622,1.604-0.979,3.474-0.979,5.611c0,1.068,0.177,2.761,0.445,4.81
						c0.268,2.315,0.355,3.829,0.268,4.72c0,2.138-0.268,4.099-0.891,5.881c0.266,0.444,0.891,0.622,1.869,0.711
						c0.893,0,1.514,0.445,1.871,1.069c0.534-0.179,1.157-0.267,1.604-0.267c0.623-0.09,1.337,0.176,2.048,0.623
						c0.713,0.623,1.336,0.891,1.869,0.979c0.714,0,1.337-0.624,1.873-1.78c0.445,0,1.156,0,1.958,0l2.227-0.18
						c1.514,0,2.584,0.357,3.295,1.247l0.803,0.089c1.691,0.089,2.583-0.534,2.852-1.87l9.172,1.781l1.248-2.228
						c0.268-0.979,0.802-1.603,1.424-1.958c-0.088-0.269-0.177-0.624-0.177-1.07c0-0.534,0.089-1.157,0.356-1.87
						C253.751,82.301,253.929,81.68,254.02,81.233z M250.367,66.446v0.446h-0.622c-0.534,0-0.891-0.178-0.891-0.712l0.177-0.533
						c0.091,0,0.268-0.091,0.445-0.091C250.101,65.557,250.367,65.824,250.367,66.446z M232.91,38.391
						c0.269,0.089,0.356,0.267,0.356,0.445c0,0.356-0.088,0.624-0.356,0.802c-0.356-0.178-0.534-0.445-0.622-0.802
						C232.375,38.658,232.553,38.48,232.91,38.391z M224.716,38.836h0.445c0.623,0,0.979,0.268,0.979,0.89v0.446l-0.445,0.089
						c-0.623,0-0.979-0.357-0.979-1.069V38.836z M235.316,87.914c-0.268-0.269-0.445-0.536-0.445-0.714s0.178-0.356,0.445-0.534
						c0.354,0.178,0.534,0.356,0.534,0.534S235.67,87.646,235.316,87.914z M236.652,84.705c-0.357-0.266-0.536-0.445-0.536-0.623
						s0.179-0.356,0.536-0.444c0.267,0.088,0.445,0.267,0.445,0.444S236.918,84.439,236.652,84.705z M236.116,73.038
						c0-0.178,0.179-0.445,0.536-0.711c0.267,0.266,0.445,0.533,0.445,0.711c0,0.269-0.179,0.444-0.445,0.625
						C236.294,73.482,236.116,73.307,236.116,73.038z M251.526,74.999c-0.269,0.088-0.535,0.088-0.803,0.088
						c-0.177,0-0.444-0.088-0.711-0.445c-0.356-0.268-0.714-0.444-0.891-0.444c-0.445,0-0.714,0.266-0.625,0.802
						c-0.089,0.354,0.357,0.801,1.159,1.335c0.711,0.445,1.156,0.892,1.067,1.336c0,0.267-0.356,0.535-1.067,0.892v3.472
						c0.089,1.782,0.711,2.94,1.87,3.385l-1.514-0.088c-1.07,0-1.872,0.267-2.317,0.802c-0.355,0.266-0.623,0.712-0.712,1.246
						c-0.179,0.536-0.355,0.802-0.534,0.802l-0.536-0.266l-0.622-1.248c-0.622,0.534-1.158,0.89-1.604,0.801
						c-0.445,0.089-0.891-0.267-1.336-1.069c-0.446-0.71-0.8-1.156-1.157-1.067c-0.445,0-0.891,0.444-1.424,1.336
						c-0.893-0.356-1.336-0.713-1.336-1.069c0-0.267,0.266-0.623,0.89-1.069c0.534-0.445,0.801-0.89,0.891-1.336
						c-0.09-0.979-0.624-1.604-1.604-1.87c-1.068-0.267-1.514-0.533-1.514-0.713l0.178-0.802l0.355-0.178
						c0.179,0,0.534,0.178,0.98,0.444c0.356,0.27,0.713,0.358,0.891,0.358c0.534,0,0.802-0.358,0.802-1.07s-0.179-1.156-0.533-1.425
						c-1.336,0.089-2.05,0-2.14-0.267l0.267-1.069l1.158-0.623c-0.444-0.713-0.533-1.336-0.621-1.78
						c0-0.356,0.177-0.715,0.443-1.248c0.178-0.445,0.268-0.979,0.178-1.604c0.09-0.711-0.533-1.245-1.78-1.426
						c-0.089-0.444,0.177-0.71,0.713-0.71h1.603c0.534,0,0.801-0.357,0.713-0.892v-0.268c-0.624,0.177-1.426-0.089-2.315-0.803
						c-0.891-0.711-1.604-1.067-1.961-1.067c-0.444,0-0.802,0.179-1.156,0.712c0.088,0.355,0.178,0.713,0.178,1.158
						c0,0.623-0.178,1.513-0.623,2.672c-0.445,1.336-0.713,2.227-0.713,2.76c0,1.071,0.713,1.782,2.226,1.961
						c0.178,0.356,0.269,0.623,0.356,0.891c-0.088,0.267-0.533,0.445-1.424,0.445c-0.98,0-1.427,0.266-1.427,0.891
						c0,0.355,0.269,0.711,0.981,0.979c0.623,0.356,1.068,0.712,1.068,1.157l-0.178,0.625c-0.714,0.445-1.158,0.89-1.158,1.336
						c0,0.266,0.268,0.444,0.713,0.533c-0.356,0.269-0.802,1.248-1.427,3.029c-0.622,1.424-1.068,2.137-1.602,2.048
						c-0.535,0.089-1.247-0.355-2.139-1.246c-0.177,0.534-0.445,0.712-0.802,0.622h-0.357c-0.266,0.09-0.444,0.892-0.533,2.496
						c-0.267-0.18-0.445-0.447-0.445-0.892c0-0.091,0.089-0.444,0.269-0.98l0.088-0.712c0-0.356-0.714-0.534-2.049-0.534
						c-0.623,0-0.979,0.178-1.157,0.534c0.089,0.267,0.178,0.534,0.089,0.801c-0.178,0.356-0.446,0.447-0.802,0.447h-0.445
						c0.18-0.803,0.356-1.336,0.356-1.604c0-0.268-0.177-0.713-0.356-1.248c-0.267-0.444-0.446-0.979-0.534-1.424
						c-0.979,0.088-1.425-0.178-1.425-0.979v-0.357l0.533-0.089c0.356,0,0.624,0.089,0.892,0.267c0.268,0.091,0.534,0.18,0.714,0.18
						c0.266-0.089,0.621-0.446,0.979-1.07l-0.535-1.156l-1.157,0.711c-0.713-0.445-1.068-0.89-0.979-1.245
						c-0.09-0.445,0.266-0.892,0.979-1.336c0.356,0.8,0.891,1.245,1.514,1.336c0.179,0,0.535-0.269,0.98-0.626
						c0.355-0.533,0.534-0.891,0.623-1.066v-0.269c-0.802,0.089-1.514-0.177-2.227-0.623c-0.623-0.534-0.979-1.158-0.891-2.049
						c-0.089-0.534,0.088-1.067,0.534-1.602l-0.534-1.336c-0.446,0.088-0.713,0.088-0.892-0.091
						c-0.355-0.089-0.533-0.267-0.533-0.622v-0.446l0.533-0.178c0.624,0,1.159,0.089,1.605,0.355c0.266,0.091,0.533,0,0.8-0.267
						c0.179-0.268,0.268-0.533,0.268-0.802c0-0.446-0.178-0.802-0.624-1.158l-1.157,0.801c-0.803-0.356-1.159-0.71-1.159-1.067
						c0-0.356,0.268-0.802,0.713-1.336c0.534-0.624,0.714-1.157,0.714-1.516c0-0.354-0.091-0.711-0.268-1.067
						c0.714-0.357,1.067-0.713,1.067-1.247c0-0.266-0.177-0.623-0.533-1.157c-0.267-0.536-0.534-0.981-0.534-1.335
						c-1.336,0.088-2.05-0.09-2.05-0.446l0.179-0.713h0.446c0.266,0,0.712,0,1.247,0.177l0.712,0.091
						c0.533,0,0.891-0.268,1.158-0.982l-0.535-1.335l-1.157,0.713c-0.803-0.356-1.159-0.713-1.159-1.068
						c0-0.268,0.268-0.803,0.713-1.336c0.534-0.536,0.714-1.07,0.714-1.515c0-0.356-0.091-0.711-0.268-0.979
						c0.623-0.357,0.891-0.713,0.891-1.068c0-0.268-0.177-0.624-0.356-1.07c-0.357-0.535-0.534-0.801-0.534-0.98
						c-1.336,0-2.05-0.088-2.05-0.534l0.179-0.712l0.446-0.09l0.89,0.09c0.357,0.178,0.623,0.178,0.803,0.178
						c0.623,0,0.89-0.357,0.89-0.891c0-0.445-0.355-0.89-1.157-1.336c-0.803-0.534-1.247-0.89-1.159-1.335
						c-0.088-0.269,0.356-0.535,1.159-0.891c-0.268-2.138-0.089-3.207,0.534-3.207c0.356,0,0.891,0.09,1.515,0.356
						c0.623,0.267,1.068,0.356,1.336,0.445c0.711-0.089,1.246-0.445,1.603-1.248c-0.445-0.178-0.623-0.445-0.712-0.801
						c0.089-0.357,0.445-0.713,1.245-1.069c0.625,0.712,1.604,1.158,2.941,1.336c2.138,0.267,3.294,0.446,3.385,0.534
						c0.445-1.246,0.891-2.137,1.245-2.672c0.179,0,0.445,0.446,0.536,1.336c-0.357,0.178-0.625,0.356-0.625,0.535
						c0.089,0.356,0.445,0.801,1.248,1.247l1.159-1.247c0.533-0.623,1.067-0.891,1.602-0.981c0.625,0.09,1.069,0.713,1.516,1.782
						c0.177-0.534,0.622-0.801,1.335-0.801h0.534c0.445,0.267,0.712,0.534,0.712,0.891c0,0.267-0.178,0.623-0.445,1.158
						c-0.267,0.268-0.355,0.624-0.355,0.801c0,0.623,0.178,0.89,0.623,0.89c0.356,0,0.802-0.354,1.336-1.157
						c0.445-0.801,0.979-1.245,1.337-1.245c0.355,0,0.712,0.444,1.067,1.245c-0.445,0.09-0.623,0.357-0.623,0.981l-0.089,1.336
						c0.712-0.09,1.425,0.177,1.871,0.623c0.444,0.534,0.802,1.158,0.802,1.871c0,0.801-0.269,1.425-0.625,1.96l0.625,1.335h1.067
						c0.534,0,0.803,0.177,0.803,0.533v0.535c-0.269,0.178-0.535,0.268-0.803,0.268c-0.177,0-0.444-0.179-0.711-0.536
						c-0.356-0.267-0.714-0.445-0.891-0.355c-0.445-0.09-0.714,0.177-0.625,0.712c-0.089,0.357,0.357,0.802,1.159,1.335
						c0.711,0.447,1.156,0.891,1.067,1.248c0,0.357-0.356,0.802-1.067,1.159c-0.357-0.444-0.979-0.713-1.961-0.713l-0.712,1.336
						c1.514-0.176,2.315,0.446,2.404,1.604c0,0.622-0.266,1.691-0.891,3.295c0.18,0.445,0,0.713-0.534,0.713l-0.979-0.179
						l-0.089-0.267c0-0.713,0.178-1.426,0.801-2.226c-0.088-0.268-0.445-0.445-1.246-0.536c0,0.536-0.445,1.159-1.247,1.873
						c-0.802,0.711-1.247,1.335-1.247,1.69c0,0.357,0.445,0.892,1.336,1.337c0.356-0.445,0.713-0.623,1.068-0.623
						c0.98,0,1.427,0.623,1.427,1.871c0,0.179-0.179,0.444-0.446,0.8c-0.268,0.269-0.356,0.535-0.356,0.624
						c0,0.535,0.535,1.158,1.514,1.781c0.979,0.624,1.425,1.157,1.425,1.781c0,0.535-0.354,1.247-0.891,1.872
						c0,0.622,0.536,0.979,1.336,1.155c0.891,0.09,1.336,0.358,1.336,0.715L251.526,74.999z"/>
					<polygon fill="#FFFFFF" points="224.716,56.294 224.716,56.384 224.181,56.294 					"/>
					<path fill="#FFFFFF" d="M233.444,55.047h0.714v0.088c-0.089,0.089-0.089,0.089-0.268,0
						C233.712,55.136,233.624,55.136,233.444,55.047z"/>
					<path fill="#FFFFFF" d="M234.158,53.178c-0.178-0.268-0.178-0.536-0.268-0.891c0.09-0.446,0.268-1.16,0.89-1.872
						c0.445-0.802,0.625-1.336,0.536-1.604v-0.534c0.267,0.088,0.445,0.268,0.445,0.712c0,0.267-0.091,0.624-0.268,1.07
						l-0.178,1.067c0.089,0.624,0.445,0.891,1.245,0.891c0.536,0,0.981-0.177,1.069-0.534c0.09-0.089,0.179-0.535,0.267-1.336
						c-0.088-0.446,0.091-0.712,0.356-0.712c-0.356,1.691-0.623,3.117-0.623,4.097l0.267,2.672c0,0,0.446-0.089,1.158-0.089
						c0.446,0,0.715,0.179,0.715,0.535v0.267c-0.357,0.269-0.803,0.446-1.336,0.446c-0.357,0-0.892,0-1.516-0.269l-1.603-0.8
						c0-0.179,0.178-0.536,0.711-0.802c0.534-0.357,0.714-0.713,0.803-1.07c0-0.711-0.269-1.068-0.892-1.245H234.158z"/>
					<path fill="#FFFFFF" d="M240.214,54.157L239.77,53.8h0.533v0.088C240.303,54.068,240.303,54.068,240.214,54.157z"/>
					<path fill="#FFFFFF" d="M240.837,75.978l-0.177,0.356c-0.27,0-0.446-0.09-0.891-0.356H240.837z"/>
					<polygon fill="#FFFFFF" points="240.837,84.26 241.551,84.26 241.728,84.351 241.64,84.351 					"/>
					<path fill="#FFFFFF" d="M245.913,85.418v0.179c-0.177,0-0.266,0-0.622-0.179H245.913z"/>
					<path fill="#FFFFFF" d="M224.181,67.605h0.535v0.178C224.627,67.783,224.449,67.694,224.181,67.605z"/>
					<polygon fill="#FFFFFF" points="224.716,56.384 224.716,56.294 224.181,56.294 					"/>
					<path fill="#FFFFFF" d="M234.158,55.047h-0.714c0.18,0.088,0.269,0.088,0.446,0.088c0.179,0.089,0.179,0.089,0.268,0V55.047z"
						/>
					<path fill="#FFFFFF" d="M233.89,52.287c0.09,0.354,0.09,0.623,0.268,0.891h1.78c0.623,0.177,0.892,0.534,0.892,1.245
						c-0.089,0.356-0.269,0.713-0.803,1.07c-0.533,0.266-0.711,0.623-0.711,0.802l1.603,0.8c0.624,0.269,1.158,0.269,1.516,0.269
						c0.533,0,0.979-0.178,1.336-0.446V56.65c0-0.355-0.269-0.535-0.715-0.535c-0.712,0-1.158,0.089-1.158,0.089l-0.267-2.672
						c0-0.979,0.267-2.405,0.623-4.097c-0.266,0-0.444,0.266-0.356,0.712c-0.088,0.801-0.177,1.248-0.267,1.336
						c-0.088,0.356-0.533,0.534-1.069,0.534c-0.8,0-1.156-0.267-1.245-0.891l0.178-1.067c0.177-0.446,0.268-0.803,0.268-1.07
						c0-0.445-0.179-0.624-0.445-0.712v0.534c0.089,0.267-0.091,0.802-0.536,1.604C234.158,51.127,233.98,51.841,233.89,52.287z"/>
					<path fill="#FFFFFF" d="M239.77,53.8l0.444,0.356c0.089-0.088,0.089-0.088,0.089-0.269V53.8H239.77z"/>
					<path fill="#FFFFFF" d="M240.661,76.334l0.177-0.356h-1.067C240.214,76.244,240.391,76.334,240.661,76.334z"/>
					<polygon fill="#FFFFFF" points="241.551,84.26 240.837,84.26 241.64,84.351 241.728,84.351 					"/>
					<path fill="#FFFFFF" d="M245.913,85.597v-0.179h-0.622C245.647,85.597,245.736,85.597,245.913,85.597z"/>
					<path fill="#FFFFFF" d="M224.716,67.605h-0.535c0.268,0.089,0.446,0.178,0.535,0.178V67.605z"/>
				</g>
				<path fill="#FFFFFF" d="M323.582,36.699c-1.337,0-2.315-0.268-2.761-0.625c-3.118,3.385-4.634,7.214-4.634,11.49
					c0,1.248,0.089,2.049,0.269,2.496c0,0.176,0.267,0.444,0.802,0.711c0.623,0.267,0.891,0.445,0.891,0.713
					c0,0.177-0.179,0.356-0.624,0.444c0.089,0.892-0.089,2.228-0.534,3.921c-0.445,1.602-0.714,2.849-0.714,3.74
					c0.091,1.424,0.714,2.583,2.139,3.294c-0.979,4.364-1.603,7.571-1.959,9.62c0.891,0.534,1.336,1.513,1.336,2.85
					c0,1.069-0.179,2.406-0.624,4.188c-0.534,1.78-0.712,3.117-0.712,4.097v0.267c0.891,0.09,1.514,0.713,1.692,1.783l0.267,2.849
					l4.898,1.87c2.049,0.714,3.831,1.158,5.255,1.248c0.624-1.604,1.337-2.404,2.051-2.316c0.089-0.088,0.266,0.09,0.444,0.356
					h1.068c1.425,0.088,2.404-0.535,2.849-1.78c0.18-0.358,0.358-1.694,0.446-4.099c0.179-1.691,0.624-2.938,1.337-3.742
					c-1.604-0.621-2.494-1.603-2.494-3.028c0-0.711,0.267-1.602,0.711-2.671l1.07-2.492c2.493,0.177,3.829-0.445,3.919-1.962
					c0.892,0.715,1.603,1.159,2.228,1.159c0.623,0,1.246-0.713,1.87-2.138c0.623-1.336,1.425-2.049,2.315-2.049
					c0.445,0,1.068,0.268,1.87,0.624c0.624-1.248,1.158-2.852,1.604-4.81l1.068-4.987c-0.979-0.979-1.425-2.139-1.514-3.563
					c0.089-0.979,0.356-2.316,0.802-4.009c0.445-1.603,0.712-2.85,0.712-3.742c-0.534-0.177-0.979-0.355-1.514-0.712
					c-0.534-0.356-0.802-0.713-0.713-1.069c-0.089-0.355,0-0.802,0.089-1.336l0.179-1.245c0-0.714-1.336-1.694-3.92-3.029
					c-2.671-1.248-4.452-1.87-5.432-1.87c-0.625,0-1.158,0.089-1.604,0.267c-3.206-1.336-5.433-1.96-6.946-1.87
					c-1.781-0.09-3.207,0.534-4.453,1.87C326.074,36.876,325.005,36.699,323.582,36.699z M321.085,38.658
					c-0.088-0.267,0.089-0.445,0.446-0.8c0.269,0.355,0.357,0.533,0.357,0.8c0,0.178-0.089,0.357-0.357,0.713
					C321.174,39.015,320.998,38.836,321.085,38.658z M324.026,40.529v-1.158c0-0.535,0.178-0.802,0.535-0.802l0.891,0.089
					c0,0.802,0,1.515-0.09,1.871c0.09,0.891,0.357,1.336,0.892,1.336h0.356c0-0.445,0.178-0.981,0.445-1.603
					c0.266-0.624,0.534-0.802,0.891-0.802c0.445,0,0.979,0.088,1.781,0.266c0.801,0.268,1.514,0.446,2.048,0.446
					c0.445,0,0.802-0.088,1.069-0.268l0.801,0.802c0.357,0.267,0.713,0.446,0.981,0.446c0.533,0,0.89-0.446,0.8-1.248v-0.89
					c0-0.357,0.09-0.535,0.444-0.624c0.269,0,0.536,0.089,0.893,0.267l0.178,0.535c0.089,0.268-0.088,0.534-0.355,0.892
					c-0.269,0.445-0.446,0.8-0.535,0.979c0,0.267,0.267,0.535,0.713,0.802c0.534-0.178,1.158-0.535,1.871-1.158
					c0.8-0.713,1.424-0.981,1.959-0.981c0.623,0,1.246,0.446,2.049,1.427c0.089-0.357,0.267-0.624,0.445-0.624
					c0.445,0.089,0.891,0.534,1.336,1.336c-0.445,0.179-0.625,0.534-0.625,0.979v1.603c1.871-0.267,2.852,0.179,2.852,1.248
					l-0.268,2.761c0,0.891,0.623,1.426,1.87,1.605l0.089,0.355c-0.089,0.356-0.267,0.801-0.712,1.246
					c-0.533,0.446-0.713,0.891-0.713,1.159c0,0.357,0.18,0.802,0.713,1.156c-0.891,0.981-1.336,2.05-1.247,3.386
					c-0.089,0.623,0,1.335,0.268,2.227l0.267,2.049c0.891-0.179,1.336,0.089,1.425,0.711l-0.089,0.534
					c-0.802-0.445-1.425-0.623-1.87-0.623c-0.802,0-1.426,0.623-2.049,1.959c-0.445,1.336-1.069,1.96-1.691,1.96
					c-0.625,0-1.248-0.18-1.96-0.624l-0.713,1.247c0.178,0.356,0.624,0.533,1.337,0.533l0.979-0.089c0.356,0,0.534,0.18,0.623,0.535
					c0,0.268-0.089,0.625-0.267,0.98h-0.445c-0.357,0-0.803-0.268-1.247-0.713c-0.534-0.445-0.892-0.803-1.247-0.803
					c-0.269,0-0.623,0.269-1.068,0.803c-1.159-0.445-1.871-0.803-2.138-0.803c-1.158,0-1.693,0.446-1.782,1.248
					c0,0.714,0,1.159,0,1.424c-0.088,0.09-0.268,0.181-0.445,0.269c-0.18-0.088-0.533-0.179-0.891-0.533
					c-0.445-0.357-0.802-0.536-1.069-0.536c-0.178,0-0.355,0.268-0.534,0.801c0.891,0.98,1.336,1.782,1.336,2.316
					c-0.089,0.445-0.089,0.802-0.178,1.246c-0.089,0.358-0.089,0.892-0.089,1.517c-0.891,1.067-1.247,2.314-1.247,3.65
					c0,1.514,0.356,2.938,1.247,4.542c0.534-0.268,0.892-0.088,0.892,0.534l-0.091,0.892c-0.712-0.446-1.425-0.623-2.048-0.623
					c-0.802,0-1.515,0.711-2.049,2.226c-0.534,1.336-1.068,1.96-1.692,1.96s-1.426-0.444-2.404-1.157
					c-0.534,0.178-0.802,0.623-0.891,1.336c-0.089,0.534-0.178,0.892-0.357,0.892c-0.178,0-0.445-0.091-0.802-0.18
					c0.18-1.425,0-2.761-0.533-4.009l-1.337,0.802l-0.089,1.159c-0.088,0.533-0.269,0.801-0.622,0.892l-0.803-0.179V87.2
					c0-0.534,0.089-1.337,0.356-2.404c0.267-1.07,0.355-1.872,0.446-2.495c0-1.246-0.625-1.958-1.96-2.228v-0.532
					c0-0.27,0.089-0.445,0.267-0.535c0.178-0.179,0.266-0.268,0.445-0.179h0.445c0.178,0.357,0.445,0.534,0.712,0.534
					c0.444,0.091,0.891-0.355,1.427-1.156c-0.268-0.269-0.714-0.626-1.336-0.892c-0.625-0.445-1.07-0.802-1.248-1.158
					c0.445-0.802,0.98-1.156,1.513-1.156c0.089,0,0.27,0.266,0.446,0.71h0.18c0.266,0,0.622-0.177,0.979-0.622
					c0.267-0.356,0.534-0.624,0.711-0.624c-0.891,0-1.602-0.266-2.228-0.8c-0.711-0.536-1.067-1.248-1.067-2.049
					c0-0.624,0.178-1.159,0.714-1.694l-0.803-1.156c-0.355,0.089-0.625,0.089-0.891-0.09c-0.178-0.089-0.267-0.266-0.267-0.623
					v-0.534c0.354-0.18,0.712-0.269,0.979-0.269c0.091,0,0.268,0.089,0.714,0.269c0.268,0.089,0.444,0.089,0.621,0.089
					c0.357,0,0.626-0.269,0.982-0.802l-0.625-1.247l-1.247-0.088c-0.534-0.09-0.892-0.268-0.801-0.535l0.089-0.802
					c2.048,0,3.296-0.356,3.829-1.248c-0.8,0.092-1.513-0.177-2.228-0.711c-0.711-0.534-1.067-1.158-1.067-1.96
					c0-0.534,0.178-1.069,0.714-1.691l-0.803-1.427c-0.355,0.091-0.625,0.091-0.891,0c-0.267-0.088-0.356-0.354-0.267-0.711v-0.446
					l0.623-0.179c0.267,0,0.534,0.092,0.801,0.179l0.801,0.178c0.357,0,0.715-0.265,1.071-0.979l-0.625-1.159
					c-1.425,0.091-2.139,0-2.048-0.445l0.089-0.8c0.178-0.179,0.357-0.268,0.623-0.268c0.268,0,0.534,0.178,0.89,0.446
					c0.357,0.356,0.715,0.445,0.892,0.534c0.534-0.089,0.802-0.266,0.892-0.711c-0.09-0.803-0.535-1.515-1.426-2.316
					c-0.979-0.714-1.425-1.336-1.425-1.87c0-0.446,0.267-0.981,0.803-1.604c-0.268-0.445-0.357-0.713-0.268-0.98
					c-0.09-0.355,0.177-0.712,0.621-1.246c0.626-0.536,0.892-0.98,0.982-1.336c-0.091-0.535-0.536-0.802-1.336-0.802
					c-0.981-0.089-1.428-0.267-1.337-0.712l0.089-0.712c0.623,0.267,1.157,0.355,1.87,0.355
					C322.333,41.508,323.225,41.153,324.026,40.529z M318.861,44.446c0.354,0.179,0.532,0.357,0.623,0.624
					c-0.091,0.179-0.269,0.357-0.623,0.624c-0.179-0.267-0.357-0.445-0.357-0.624C318.503,44.804,318.682,44.625,318.861,44.446z
					 M333.556,38.035c-0.089,0.178-0.356,0.355-0.712,0.623c-0.268-0.178-0.444-0.356-0.444-0.623c0-0.268,0.177-0.445,0.444-0.624
					C333.2,37.59,333.467,37.767,333.556,38.035z M346.382,41.865c0.268,0.179,0.356,0.355,0.356,0.534
					c0,0.268-0.089,0.534-0.356,0.712c-0.357-0.178-0.445-0.444-0.357-0.712C345.937,42.22,346.025,42.044,346.382,41.865z
					 M348.965,59.056c-0.356-0.179-0.533-0.357-0.624-0.625c0.091-0.177,0.268-0.534,0.624-0.711
					c0.356,0.177,0.534,0.534,0.445,0.711C349.5,58.699,349.322,58.876,348.965,59.056z M334.18,80.073
					c0.267,0.27,0.446,0.535,0.446,0.715c0,0.267-0.18,0.445-0.446,0.711c-0.268-0.266-0.444-0.444-0.444-0.711
					C333.736,80.608,333.913,80.343,334.18,80.073z M331.775,87.022v-0.356h0.356c0.534-0.088,0.802,0.088,0.802,0.534l-0.089,0.535
					H332.4C331.954,87.735,331.686,87.467,331.775,87.022z M338.009,49.436h-0.534l0.357,0.266l0.177-0.088V49.436z M334.98,48.278
					c-0.444-0.089-0.711,0.088-0.711,0.445c0,0.178,0.089,0.446,0.445,0.713c-0.179,0.089-0.445,0.445-0.802,0.98
					c-0.534,0.623-0.891,0.89-1.068,0.98c-0.268-0.09-0.356-0.357-0.535-0.714h-0.267c-0.268,0-0.445,0.268-0.445,0.535l0.178,0.268
					c1.069,0.088,1.604,0.534,1.604,1.336c0,0.357-0.088,0.891-0.268,1.602c-0.178,0.625-0.267,1.158-0.267,1.515v0.535l0.892-0.089
					c1.156,0,1.959,0.444,2.314,1.336c0.891-0.268,1.337-0.803,1.337-1.604l-0.18-2.315c-0.089-0.713,0-1.336,0.268-1.872
					l-2.049,0.089c-0.534-0.089-0.712-0.445-0.712-1.247c0-0.356,0.266-0.711,0.624-1.158c0.444-0.357,0.712-0.624,0.712-0.802
					C336.05,48.366,335.695,48.188,334.98,48.278z M334.98,53.977c0-0.177,0.18-0.445,0.446-0.534
					c0.269,0.089,0.444,0.357,0.535,0.534c-0.091,0.18-0.267,0.446-0.535,0.625C335.16,54.423,334.98,54.157,334.98,53.977z
					 M332.844,58.521h-0.535c0.179,0.177,0.356,0.177,0.535,0.177V58.521z M339.434,57.095h-0.8
					c0.266,0.269,0.533,0.269,0.711,0.269c0,0,0.089,0,0.089-0.178V57.095z M335.426,59.056h-1.246
					c0.534,0.178,0.979,0.266,1.068,0.266C335.426,59.321,335.426,59.233,335.426,59.056z"/>
				<path fill="#FFFFFF" d="M357.784,35.986h-0.445c-0.356,0.445-0.981,1.872-2.049,4.276c-1.159,2.405-1.782,3.83-1.782,4.185
					c0,0.892,0.178,1.605,0.534,2.316l1.336,2.138l-0.356,3.387c-0.267,1.601-0.711,2.492-1.514,2.849v0.357
					c-0.088,0.891,0.089,1.693,0.534,2.493l1.336,2.317c-0.266,0.623-0.535,1.69-0.89,3.118c-0.267,1.244-0.624,2.314-0.98,3.025
					c0.089,0.269,0.269,0.714,0.714,1.337c0.445,0.535,0.621,0.98,0.621,1.336c0,0.356-0.176,0.801-0.621,1.158l0.711,1.959
					c0,0.624-0.178,1.604-0.444,2.763c-0.267,1.245-0.446,2.136-0.446,2.761c0,0.445,0.089,0.89,0.18,1.336
					c-0.625,0.802-0.981,1.424-0.981,1.869c0,0.623,0.445,1.336,1.248,2.139c0.802,0.801,1.158,1.514,1.158,1.958
					c0,0.446-0.18,0.98-0.534,1.604c-0.357,0.623-0.624,1.157-0.624,1.514c0.088,0.891,0.267,1.336,0.624,1.515
					c0.354,0.088,0.891-0.091,1.513-0.356c0.714-0.356,1.336-0.535,1.782-0.535c0.533,0,0.979,0.268,1.335,0.713
					c0.803,0,1.96,0.179,3.475,0.535c1.603,0.534,2.85,0.801,3.651,0.801c1.336,0,2.316-0.623,2.94-1.781
					c2.047,0.802,4.098,1.158,6.145,1.158c0.268,0,0.713-0.178,1.336-0.534c0.713-0.356,0.981-0.624,0.981-0.892
					c0.088-0.178,0-0.355-0.269-0.444c1.247-1.247,1.781-2.94,1.781-4.989v-2.404c-0.089-0.712-0.089-1.513,0-2.315
					c0.089-0.801,0.268-1.515,0.445-2.138c-0.268,0.089-0.534,0.089-0.714,0.089c-0.622,0-1.335-0.445-2.226-1.514
					c-0.892-0.979-1.604-1.424-2.047-1.424c-0.625,0.088-1.159,0.354-1.694,0.979c-0.177-0.268-0.533-0.625-0.979-0.979
					c-0.533-0.356-0.802-0.714-0.802-0.892c0-0.179,0.178-0.444,0.535-0.535c0-0.891,0.179-2.048,0.533-3.563
					c0.445-1.514,0.624-2.673,0.713-3.473c0-1.515-0.622-2.495-1.958-3.118c0.979-4.543,1.602-7.927,1.958-10.065
					c-1.067-0.089-1.604-0.445-1.692-0.891c0-0.267,0-0.623,0.18-1.067c0.089-0.446,0.267-0.803,0.267-1.07
					c0-0.535-0.178-0.891-0.712-1.248c1.513-1.513,2.136-3.296,1.958-5.343v-1.425c-1.335,0.179-2.138-0.535-2.315-1.959
					c-0.268-1.781-0.713-2.851-1.424-3.029c-0.892,0.801-2.049,1.159-3.474,1.159c-0.979,0-2.495-0.179-4.454-0.624
					C360.01,36.075,358.584,35.897,357.784,35.986z M358.407,40.439c0.268,0.09,0.623,0,1.068-0.177l1.692-0.536
					c-0.267-0.178-0.357-0.444-0.179-0.89c0.09-0.356,0.268-0.534,0.535-0.534c0.713-0.089,1.067,0.178,1.067,0.534
					c0,0.356-0.088,0.624-0.266,0.89c-0.445,0.179-0.713,0.268-0.713,0.536c0,0.356,0.445,0.801,1.336,1.246l1.158-0.534
					c-0.089-1.426,0.089-2.138,0.445-2.138c0.178,0,0.356,0.09,0.803,0.179c-0.269,0.979-0.357,1.603-0.269,1.959
					c0,0.801,0.533,1.603,1.604,2.315c0.623-0.088,0.98-0.623,1.069-1.603c0-1.069,0.268-1.603,0.712-1.603l0.713,0.088
					c0,0.356-0.178,0.802-0.357,1.425c-0.355,0.623-0.445,1.069-0.445,1.425c0,0.534,0.445,1.069,1.427,1.692
					c0.891-0.356,1.336-0.09,1.336,0.712v0.445h-0.625l-1.692-0.178c-0.534,0-0.891,0.267-0.891,0.979
					c0,0.268,0.445,0.713,1.248,1.159c0.802,0.534,1.246,0.979,1.246,1.247c0,0.356-0.444,0.713-1.246,1.069
					c0.268,0.534,0.355,1.158,0.355,1.781v1.337c-0.088,0.446-0.177,0.979-0.177,1.514c0,1.158,0.533,1.961,1.781,2.315
					c-0.268,0.091-0.536,0.269-0.714,0.269c-0.268,0-0.444-0.178-0.803-0.446c-0.355-0.355-0.621-0.533-0.801-0.533
					c-0.623,0-0.891,0.802-0.979,2.315c0.089,0.623,0.269,0.979,0.624,1.068l1.337-0.177c0.534,0.088,0.711,0.268,0.711,0.623
					c0,0.091,0,0.268-0.089,0.536l-1.246,0.8c0.268,0.535,0.355,1.158,0.355,1.692v1.335c-0.088,0.446-0.177,0.98-0.177,1.425
					c0,1.159,0.533,2.05,1.781,2.495c-0.268,0-0.536,0-0.714,0.089c-0.268-0.089-0.444-0.177-0.803-0.446
					c-0.355-0.266-0.621-0.444-0.801-0.355c-0.623,0-0.891,0.355-0.979,1.069c0.089,0.711,0.269,1.157,0.624,1.425
					c1.425-0.089,2.137,0.089,2.048,0.445c0,0.178,0,0.445-0.089,0.892c-2.138-0.178-3.117,0.088-3.117,0.713
					c0,0.622,0.357,0.979,1.247,1.155c0.979,0.181,1.426,0.534,1.426,1.159l-0.178,0.535c-0.624,0.444-0.981,0.89-0.981,1.335
					c0,0.268,0.18,0.533,0.536,0.802c0.265,0.266,0.623,0.446,0.891,0.446c0.623,0,0.979-0.181,1.245-0.446l0.091,0.356
					c3.918,0.801,6.056,2.049,6.412,3.829c-0.623-0.089-1.336-0.089-2.049,0.089c-0.711,0.268-1.069,0.713-1.069,1.336
					c0,0.357,0.179,0.714,0.535,1.07h0.267c0.357,0,0.624-0.179,0.98-0.625c0.623,0.446,0.891,0.802,0.891,1.248
					c0,0.444-0.268,0.891-0.891,1.246c-0.445-0.802-1.068-1.158-1.782-1.158c-0.801,0-1.425,0.446-1.869,1.337
					c-0.624,0.98-1.07,1.604-1.425,1.693c-1.07-0.803-2.405-1.157-3.83-1.069c-0.98-0.088-2.051,0.088-3.118,0.445
					c0.356,0.891,0.089,1.247-0.534,1.247h-0.624v-0.713c-0.089-0.534,0.09-0.979,0.356-1.426c0-0.267-0.089-0.445-0.356-0.623
					c-0.178-0.267-0.445-0.355-0.712-0.267c-0.445-0.089-0.802,0.178-1.247,0.533c0.178,1.337-0.089,2.051-0.535,2.051l-0.532-0.179
					c0-0.357,0.088-0.713,0.088-1.069c0-2.672-1.069-4.008-3.206-4.008v-0.18c0-0.533,0.178-1.424,0.622-2.493
					c0.357-0.979,0.446-1.868,0.446-2.493c0-1.158-0.623-1.871-1.782-2.315c0.445-0.623,0.714-1.248,0.714-1.87v-1.961
					c0.089-0.711,0.445-1.336,1.068-1.782l-0.623-1.336c0-0.266,0.177-0.8,0.445-1.424c0.178-0.623,0.178-1.156,0.178-1.425
					c0-0.803-0.623-1.247-1.782-1.336c0.979-1.425,1.425-2.849,1.514-4.276c-0.089-1.068-0.354-2.227-0.8-3.294
					c-1.069,0.177-1.692,0-1.961-0.535l1.781-0.179c0.802-0.266,1.248-0.623,1.248-1.157c0-0.356-0.269-0.89-0.803-1.424
					c-0.711-0.714-0.979-1.16-0.979-1.516c0-0.445,0.357-0.98,1.159-1.514c-0.268-0.178-0.445-0.891-0.445-1.87
					c0.622-0.269,0.891-0.623,0.891-0.98c0-0.356-0.091-0.624-0.445-1.069c-0.268-0.446-0.445-0.713-0.445-0.891
					c-1.069,0.089-1.692-0.177-1.961-0.623l1.961-0.445c0.711-0.178,1.068-0.535,1.068-1.159c0-0.801-0.178-1.336-0.623-1.603
					c-0.802,0.267-1.159-0.088-1.159-0.801v-0.535C357.338,40.439,357.96,40.529,358.407,40.439z M375.863,76.512
					c0,0.177-0.178,0.445-0.444,0.714c-0.356-0.269-0.445-0.537-0.535-0.714c0.09-0.268,0.179-0.534,0.535-0.803
					C375.685,75.978,375.863,76.244,375.863,76.512z M371.144,75.709c0-0.177,0.178-0.444,0.445-0.532
					c0.445,0.088,0.712,0.355,0.712,0.532c0,0.269-0.267,0.535-0.535,0.892l-0.088,0.179c0-0.179-0.089-0.445-0.269-0.624
					C371.144,75.978,371.054,75.8,371.144,75.709z M375.685,88.358c-0.623,0-0.891-0.269-0.979-0.713l0.177-0.534l0.358-0.089
					c0.532,0,0.801,0.267,0.711,0.892v0.444H375.685z M356.091,67.248c-0.357-0.355-0.534-0.533-0.534-0.802
					c0-0.178,0.177-0.354,0.534-0.533c0.266,0.179,0.445,0.355,0.445,0.533C356.537,66.715,356.357,66.893,356.091,67.248z
					 M355.557,77.76c0-0.181,0.177-0.358,0.534-0.534c0.266,0.176,0.445,0.354,0.445,0.534c0,0.266-0.18,0.445-0.445,0.621
					C355.734,78.205,355.557,78.025,355.557,77.76z M357.159,85.062c0.534,0.09,0.802,0.356,0.802,0.802
					c0,0.179-0.088,0.356-0.177,0.534c-0.18,0.181-0.356,0.181-0.625,0.269c-0.356-0.088-0.622-0.356-0.534-0.979V85.33
					L357.159,85.062z M360.457,47.208h-0.715c0.179,0.178,0.446,0.178,0.535,0.178S360.457,47.298,360.457,47.208z M367.759,61.548
					h0.712v-0.354c0-0.268-0.179-0.446-0.535-0.446c-0.355,0.266-0.533,0.446-0.444,0.623
					C367.403,61.459,367.492,61.548,367.759,61.548z"/>
				<path fill="#FFFFFF" d="M310.932,76.779c0-0.89-0.891-1.426-2.581-1.603c-1.872-0.178-2.94-0.623-3.297-1.248
					c-0.533,1.248-1.246,1.78-2.047,1.78h-2.939L299,76.334c-0.625,0.354-0.98,0.623-0.98,0.979c0.09,0.266,0.444,0.535,1.158,0.892
					c-1.248,2.76-1.87,5.255-1.87,7.213c-0.089,1.248,0.177,2.317,0.622,3.296c0.714-0.089,1.336,0.268,1.87,0.98
					c0.624,0.801,1.159,1.157,1.604,1.157c0.357,0,0.714-0.089,1.336-0.356c0.09-0.979,0.357-1.514,0.892-1.425
					c0.269,0,0.622,0.089,1.068,0.268c0.268,0.178,0.624,0.266,0.802,0.356c0.444-0.091,0.891-0.444,1.246-0.98
					c0.803,0.536,1.425,0.89,1.959,0.98c0.802-0.091,1.604-0.713,2.227-1.78c0.356-0.714,0.625-1.604,1.07-2.584
					c-0.089-0.625,0.088-1.426,0.445-2.406c0.178-1.068,0.267-1.869,0.267-2.315c0-1.247-0.712-1.87-2.137-1.781h-0.357
					C310.667,78.025,310.932,77.401,310.932,76.779z M307.995,79.271c0.623,0,1.067,0.27,1.156,0.714
					c-0.533,0.712-0.891,1.425-0.891,2.227c0,1.426,0.625,2.228,1.96,2.493c-0.089,0.091-0.444,0.179-1.069,0.269l-1.87,0.088
					c-0.802,0.18-1.155,0.713-1.155,1.336l0.176,0.535h-0.622c-0.356-0.089-0.802-0.089-1.247-0.267
					c-0.533-0.088-0.979-0.088-1.158,0c-0.445-0.088-0.891,0-1.247,0.267c-0.355-0.179-0.535-0.445-0.624-0.891V85.33
					c0.714-0.356,1.069-0.713,0.98-1.248c0.089-0.267-0.09-0.713-0.356-1.158s-0.446-0.8-0.624-1.156l-1.067-0.088
					c-0.536-0.092-0.802-0.358-0.891-0.715l0.267-0.533l0.268-0.089c0.266,0.089,0.622,0.177,1.068,0.354
					c0.444,0.18,0.802,0.268,0.979,0.268c0.356,0,0.624-0.088,0.802-0.356c0.268-0.355,0.445-0.623,0.445-0.979
					c0-0.088-0.178-0.444-0.535-0.802h-1.336c-0.444-0.089-0.713-0.356-0.713-0.622c0-0.18,0.091-0.356,0.181-0.535l0.266-0.178
					c0.267-0.091,0.713,0.178,1.247,0.533c0.445,0.536,0.802,0.802,1.069,0.802c0.355,0,0.712-0.178,0.979-0.622l0.267-0.18
					c0.355,0.092,0.712,0.445,0.98,1.07c0.266,0.623,0.534,0.89,0.712,0.89c0.268,0,0.624-0.267,1.069-0.714H307.995z
					 M299.177,85.33c-0.357-0.269-0.534-0.534-0.534-0.625c0-0.266,0.177-0.534,0.534-0.711c0.268,0.177,0.356,0.445,0.268,0.711
					C299.534,84.796,299.445,85.062,299.177,85.33z"/>
				<g>
					<path fill="#FFFFFF" d="M60.565,74.197c-0.801-0.715-1.157-1.782-1.157-3.207c0-0.802,0.267-2.227,0.623-4.098
						c0.445-1.781,0.534-3.117,0.534-4.009l-1.781-1.513c-0.535-0.534-0.802-1.158-0.713-1.781l0.268-0.891
						c1.158-0.713,1.692-1.604,1.692-2.671l-0.089-1.604c-0.177-0.711-0.267-1.157-0.267-1.602c0-0.534,0.09-1.07,0.356-1.604
						c-0.891-0.268-1.425-1.069-1.425-2.405l0.178-1.87c0-0.891,0-1.515-0.088-1.872c-0.535-0.355-1.069-1.068-1.693-2.315
						c-0.624-1.158-1.335-1.692-2.048-1.515h-0.446l0.089-0.802c0-1.247-0.8-2.137-2.405-2.582c-2.138-0.537-3.473-1.07-3.918-1.516
						c-0.891-0.178-1.603,0.357-2.138,1.693c-0.534-0.535-0.89-0.891-1.068-1.336c-0.535,0.267-1.069,0.355-1.604,0.355
						c-0.533,0-1.424-0.089-2.759-0.355c-1.07-0.357-2.049-0.445-2.762-0.445c-1.604-0.09-2.494,0.712-2.761,2.404
						c-0.891-0.713-1.603-1.068-2.137-0.979c-0.625,0-1.336,0.712-1.872,2.048c-0.712,1.427-1.424,2.139-2.226,2.139
						c-0.536,0-1.07-0.267-1.781-0.624c-0.09,1.069-0.535,2.583-1.336,4.632c-0.802,1.96-1.159,3.473-1.248,4.543
						c0.891,0.623,1.337,1.513,1.426,2.762c0,0.799-0.178,1.958-0.535,3.295c-0.444,1.424-0.624,2.494-0.624,3.385
						c-0.089,1.336,0.446,2.404,1.604,3.026c-0.445,2.585-0.98,5.88-1.871,10.065c1.248,0.357,1.871,0.979,1.959,1.781
						c0,0.623-0.268,1.425-0.711,2.314c-0.446,1.072-0.624,1.782-0.624,2.316l0.089,0.981c0.178,0.712,0.624,1.067,1.514,1.156
						c0.891,0.181,1.425,0.269,1.425,0.446c0,0.179-0.178,0.533-0.445,1.069c-0.268,0.534-0.356,0.89-0.268,1.245
						c-0.089,0.802,0.535,1.515,1.781,2.05c1.515,0.623,2.406,1.157,2.762,1.426h0.712c-0.178,1.246,0.268,2.047,1.158,2.493
						c0.624,0.356,1.693,0.534,3.295,0.713c1.515,0.089,2.494,0.267,2.939,0.444c0.089-0.712,0.356-1.157,0.802-1.157
						c0.356,0,0.891,0.178,1.514,0.534c0.624,0.268,1.068,0.445,1.336,0.357c0.178,0,0.712-0.357,1.514-1.069
						c0.801-0.713,1.691-1.069,2.672-0.98c0.712-0.089,1.87,0.18,3.385,0.624c1.514,0.356,2.672,0.623,3.563,0.623
						c0.89,0,1.514-0.178,1.781-0.623c0.089-0.356,0.178-0.802,0.267-1.515c0-0.444,0.179-0.713,0.445-0.802
						c0.267,0,0.445,0.178,0.891,0.357l1.692-0.535v-1.604c0-0.713-0.178-1.069-0.623-0.979l-0.179-1.426
						c0-1.336,0.179-2.76,0.535-4.542L60.565,74.197z M37.854,37.411c0.177,0.267,0.266,0.534,0.266,0.713
						c0,0.178-0.089,0.356-0.266,0.534c-0.356-0.178-0.535-0.356-0.535-0.534C37.32,37.945,37.498,37.678,37.854,37.411z
						 M28.412,79.629l-0.623,0.178c-0.445,0-0.713-0.354-0.713-0.891l0.09-0.535h0.444c0.624,0,0.891,0.269,0.891,0.891
						L28.412,79.629z M43.821,89.07h-0.357c-0.622,0-0.89-0.268-0.89-0.712l0.178-0.623h0.535c0.356,0.088,0.534,0.354,0.534,0.979
						V89.07z M55.222,88.358h-0.445c-0.712,0-1.069-0.269-1.069-0.892l0.179-0.267h0.355c0.624,0,0.891,0.178,0.98,0.714V88.358z
						 M58.339,67.337l-0.624,0.18c-0.623-0.089-1.068-0.18-1.603-0.445c-0.267-0.089-0.623,0.177-0.89,0.802l0.356,1.782
						l1.335,0.089c0.535,0.087,0.801,0.266,0.801,0.533l-0.267,0.713h-0.445c-0.356,0.089-0.712,0-1.247-0.09l-0.802-0.266
						c-0.446,0-0.802,0.355-1.068,0.979c0.445-0.089,0.979,0,1.603,0.268c0.98,0.088,1.425,0.354,1.425,0.711
						c-0.088,0.445-0.356,1.07-0.802,1.87c-0.355,0.802-0.534,1.427-0.534,1.871c0,0.623,0.623,0.979,1.87,0.979h0.891v0.623
						c0,0.089-0.089,0.269-0.268,0.357c-0.178,0.087-0.356,0.177-0.623,0.177l-0.535-0.09c-0.178-0.355-0.356-0.532-0.623-0.444
						c-0.268-0.088-0.446,0.089-0.802,0.444c-0.178,0.446-0.356,0.804-0.267,1.16c-0.089,0.712,0,1.156,0.356,1.424
						c0.178,0,0.444,0,0.801,0c0.446,0,0.624,0,0.891,0c0.179,0.09,0.357,0.269,0.445,0.534l-0.267,0.713l-0.356,0.089
						c-0.624,0-1.248-0.268-2.049-0.802c-0.356,0-0.534,0.446-0.534,1.159c0.178,0.266,0.624,0.533,1.514,0.891
						c0.624,0.267,0.98,0.622,0.98,1.068l-0.089,0.713l-1.246,0.357l-2.495-0.27c-0.891,0-1.425,0.445-1.425,1.336l0.267,0.981
						c-0.89,0-1.335-0.269-1.335-0.713c0-0.269,0.089-0.625,0.356-0.98l0.089-0.98c0-0.622-0.535-0.891-1.603-0.979
						c-0.268,1.515-0.98,2.315-2.227,2.315c-0.445,0.09-1.158-0.088-2.226-0.355c-1.069-0.445-1.871-0.624-2.494-0.624
						c-1.247,0-1.869,0.802-1.869,2.496v0.444l-3.118-1.604c-1.248-0.622-2.316-0.891-3.296-0.891l-1.068,0.179
						c-0.178-0.445-0.891-0.801-2.049-1.068c-1.157-0.269-1.691-0.714-1.691-1.248v-0.356l0.624-0.178
						c0.267,0,0.623,0.178,1.068,0.534c0.267,0.179,0.535,0.269,0.802,0.269c0.178,0,0.535-0.179,0.802-0.625
						c-1.781-0.178-2.583-0.979-2.583-2.581c0-1.782-0.089-2.763-0.089-3.028c-0.178-0.98-0.892-1.604-2.228-1.87
						c0.179-0.181,0.534-0.982,0.981-2.407c0.444-1.424,0.623-2.314,0.623-2.76c0-0.622-0.446-1.067-1.248-1.336
						c-0.801-0.268-1.247-0.534-1.158-0.802l0.09-0.712h1.692c0.444,0,0.623-0.268,0.623-0.625c0-0.533-0.269-0.979-0.891-1.335
						c-0.624-0.266-0.98-0.623-0.98-0.979c0-0.177,0.089-0.445,0.267-0.802c0.713-0.267,1.07-0.534,1.07-0.979
						c0-0.356-0.089-0.802-0.268-1.247c-0.178-0.446-0.268-0.801-0.268-0.979c0-0.445,0.357-0.802,1.07-1.068v-0.09
						c0-0.624-0.446-1.157-1.248-1.513c-0.801-0.268-1.247-0.534-1.158-0.891l0.09-0.535l0.623-0.087c0.534,0,0.891,0,1.158,0
						c0.445-0.091,0.534-0.268,0.534-0.803c0-0.445-0.269-0.89-0.891-1.158c-0.624-0.266-0.98-0.623-0.98-0.979
						c0-0.178,0.089-0.357,0.267-0.623c0.713-0.536,1.07-1.07,1.07-1.516c0-0.177-0.179-0.266-0.536-0.445
						c0.09-0.892,0.624-1.96,1.604-3.384c0.802-1.247,1.247-2.227,1.247-2.939c0-0.534-0.178-1.069-0.445-1.782
						c0.267-0.444,0.712-0.712,1.157-0.712l1.07,0.356c0.712,0.088,1.157,0.178,1.514,0.088c0.268,0.089,0.445,0,0.445-0.088
						c0.089-0.356-0.088-0.891-0.267-1.515l-1.247-0.088c-0.623-0.09-0.979-0.269-0.979-0.446l0.267-0.623
						c1.158,0.534,2.139,0.89,2.761,0.89c0.535,0,1.069-0.178,1.515-0.445c0.356,0.178,0.623,0.267,0.89,0.178
						c0.535,0.089,1.158-0.268,1.781-0.981c0.534-0.711,0.981-1.068,1.247-1.068c0.535,0,1.158,0.446,1.781,1.426l0.98-0.624
						c0.354,0,0.8,0.178,1.335,0.534c0.623,0.356,1.068,0.535,1.514,0.535c0.268-0.445,0.624-0.624,1.069-0.624
						s1.069,0.357,1.871,0.979c0.712,0.624,1.424,0.981,2.048,0.981l0.445-0.09v0.535c0,0.267-0.088,0.713-0.267,1.069l-0.178,1.067
						c0,0.535,0.356,0.892,1.069,1.16c0.534-0.179,0.891-0.625,1.068-1.426c0.09-0.801,0.445-1.157,0.801-1.157l0.713,0.088
						c-0.802,0.802-1.158,1.426-1.158,1.959c0,0.624,0.445,1.159,1.514,1.692c1.068,0.535,1.604,0.979,1.691,1.337
						c-0.088,0.533-0.623,1.157-1.691,1.96l0.534,1.067l-0.089,1.426c-0.266,0.979-0.355,1.516-0.355,1.87
						c0,0.713,0.266,1.158,0.801,1.07h0.979c0.356,0.178,0.534,0.357,0.623,0.535c-0.089,0.267-0.267,0.534-0.623,0.801
						c-0.356-0.713-0.712-1.07-1.069-1.07c-0.89,0-1.603,0.536-2.227,1.605l-0.979,1.513l-0.534-0.178l-0.179-0.713
						c0-0.178,0.089-0.534,0.268-0.891c0.355-0.445,0.444-0.711,0.444-0.89c0.089-0.534-0.178-0.801-0.534-0.712
						c-0.446-0.089-0.892,0.357-1.336,1.248c-0.624,0.8-1.07,1.245-1.426,1.245s-0.624-0.355-0.979-1.158l0.624-1.335l-1.159-0.979
						c-0.444,0-0.89,0.445-1.157,1.514c-0.445,0.979-0.712,1.424-0.891,1.513c-0.356,0-0.712-0.712-1.247-2.048l0.89-1.158
						c0-0.892-0.89-1.871-2.671-2.851c0.534-0.179,0.89-0.268,1.246-0.268h1.337l0.445-1.157c0-0.625-0.802-1.16-2.315-1.605
						l-3.294-1.068l-1.07,0.713v0.178c0,0.445,0.356,0.801,0.98,1.158c0.711,0.356,1.068,0.712,0.979,0.98v0.801l-0.712,0.089
						c-0.357,0-0.625-0.089-0.98-0.179l-0.802-0.089c-0.355-0.089-0.623,0.179-0.891,0.803l0.713,1.337l1.247-0.891
						c0.624,0.445,0.98,0.891,0.98,1.335c0,0.534-0.356,0.891-0.98,1.246c-0.534-0.8-1.069-1.157-1.692-1.157
						c-0.268,0-0.535,0.177-0.891,0.624c-0.357,0.267-0.534,0.533-0.534,0.801v0.357c1.87-0.268,2.761,0.088,2.761,1.248
						l-0.179,2.493c0,1.07,0.623,1.692,1.96,1.781c-0.624,0.713-0.89,1.336-0.89,1.87c0,1.427,1.247,2.317,3.828,2.585
						c0.089,0.355,0.356,0.623,0.535,0.712c0.267-0.089,0.623-0.356,0.89-0.712c0.356-0.357,0.535-0.712,0.624-0.98
						c-0.089-0.802-0.267-1.336-0.712-1.604l-1.337,0.714c-0.712-0.445-1.069-0.891-0.979-1.248
						c-0.089-0.445,0.268-0.891,0.979-1.336c0.356,0.891,1.069,1.336,2.138,1.336h1.603c0.712,0,1.336,0.179,1.781,0.534
						c0.446-0.087,0.803-0.445,0.98-1.067s0.534-0.891,0.979-0.891l0.625,0.088c-0.09,0.356-0.179,0.625-0.179,0.891
						c0,1.247,0.98,2.227,2.939,3.296c1.87,0.979,2.85,1.603,2.939,2.047V67.337z M56.379,62.529l-0.088,0.354l-0.534,0.18
						c-0.446,0-0.713-0.267-0.713-0.713c0.09-0.267,0.09-0.445,0.179-0.534l0.356-0.178C56.112,61.728,56.379,61.993,56.379,62.529z
						 M49.521,60.303c-0.089,0.266-0.268,0.534-0.624,0.711c-0.267-0.177-0.446-0.445-0.446-0.711c0-0.18,0.179-0.268,0.446-0.446
						C49.253,60.035,49.433,60.124,49.521,60.303z M43.821,54.868v0.625c-0.178,0-0.357,0.088-0.534,0
						c-0.445,0.088-0.713-0.179-0.713-0.713l0.178-0.444l0.445-0.178C43.644,54.157,43.821,54.423,43.821,54.868z M42.574,57.986
						c0,0.179-0.178,0.356-0.534,0.713c-0.267-0.356-0.445-0.534-0.445-0.713c0-0.178,0.178-0.445,0.445-0.623
						C42.396,57.541,42.574,57.808,42.574,57.986z"/>
					<path fill="#FFFFFF" d="M54.152,52.553c-0.088,0-0.266-0.089-0.266-0.266h0.623C54.42,52.464,54.331,52.553,54.152,52.553z"/>
					<path fill="#FFFFFF" d="M55.222,48.723l-0.179,0.356c0,0-0.177-0.179-0.534-0.534h0.713V48.723z"/>
					<path fill="#FFFFFF" d="M42.041,68.051c-0.891-0.089-1.335-0.534-1.335-1.336c0-0.269,0-0.446,0-0.534l2.582,1.958
						c0.979,0.803,1.425,1.692,1.335,2.496l-0.089,0.979c-0.979,0.979-1.424,1.692-1.335,2.227c-0.089,0.533,0.267,0.89,0.89,1.158
						c0.713,0.088,0.981,0.266,0.981,0.622v0.269c-0.535,0.444-0.892,0.622-1.069,0.711h-0.178
						c-0.088-0.534-0.268-0.711-0.534-0.711c-0.089,0-0.356,0.266-0.713,0.711c-0.267,0.356-0.445,0.625-0.534,0.713
						c0.088,0,0.267,0.266,0.534,0.623c0.268,0.357,0.535,0.534,0.713,0.444c0.177,0,0.356-0.176,0.534-0.621h0.266
						c0.357,0,0.446,0.177,0.446,0.621c0,0.625,0,1.071,0,1.248c-0.356-0.444-1.069-0.802-2.226-0.979
						c-1.069-0.088-1.602-0.444-1.602-0.979v-0.356c0.711-0.356,0.979-0.713,0.979-0.979c0-0.356-0.268-0.713-0.713-1.157
						l-0.802-0.979l-1.157,0.533l-0.089-0.089l0,0c0.089-0.268,0.267-0.625,0.712-1.159h0.089c0.268,0,0.624,0.09,0.981,0.358
						c0.354,0.176,0.622,0.356,0.979,0.356c0.712,0,1.068-0.446,1.068-1.248v-0.713l-2.137-0.891c-0.624-0.267-0.98-0.891-0.98-1.69
						h0.089l1.247,0.265c0.445,0.09,0.802,0.09,1.247,0.09c0.802,0,1.158-0.179,1.246-0.623c0-0.357-0.267-0.891-0.712-1.514
						C42.574,67.873,42.307,67.962,42.041,68.051z"/>
					<path fill="#FFFFFF" d="M46.761,84.351l-0.179-0.269h0.356C46.938,84.171,46.85,84.26,46.761,84.351z"/>
					<path fill="#FFFFFF" d="M53.886,52.287c0,0.177,0.178,0.266,0.266,0.266c0.179,0,0.268-0.089,0.356-0.266H53.886z"/>
					<path fill="#FFFFFF" d="M55.043,49.079l0.179-0.356v-0.177h-0.713C54.866,48.9,55.043,49.079,55.043,49.079z"/>
					<path fill="#FFFFFF" d="M40.705,66.715c0,0.802,0.444,1.247,1.335,1.336c0.267-0.089,0.534-0.178,0.712-0.178
						c0.445,0.623,0.712,1.156,0.712,1.514c-0.088,0.444-0.444,0.623-1.246,0.623c-0.445,0-0.802,0-1.247-0.09l-1.247-0.265h-0.089
						c0,0.8,0.356,1.424,0.98,1.69l2.137,0.891v0.713c0,0.802-0.356,1.248-1.068,1.248c-0.357,0-0.625-0.181-0.979-0.356
						c-0.357-0.269-0.713-0.358-0.981-0.358h-0.089c-0.445,0.534-0.623,0.892-0.712,1.159l0,0l0.089,0.089l1.157-0.533l0.802,0.979
						c0.445,0.444,0.713,0.801,0.713,1.157c0,0.267-0.268,0.623-0.979,0.979v0.356c0,0.535,0.533,0.892,1.602,0.979
						c1.157,0.178,1.87,0.535,2.226,0.979c0-0.177,0-0.623,0-1.248c0-0.444-0.089-0.621-0.446-0.621h-0.266
						c-0.178,0.445-0.357,0.621-0.534,0.621c-0.178,0.09-0.445-0.087-0.713-0.444c-0.267-0.357-0.445-0.623-0.534-0.623
						c0.088-0.088,0.267-0.356,0.534-0.713c0.357-0.445,0.624-0.711,0.713-0.711c0.267,0,0.446,0.177,0.534,0.711H44
						c0.177-0.089,0.534-0.267,1.069-0.711v-0.269c0-0.356-0.268-0.534-0.981-0.622c-0.623-0.269-0.979-0.625-0.89-1.158
						c-0.089-0.534,0.356-1.248,1.335-2.227l0.089-0.979c0.089-0.804-0.356-1.693-1.335-2.496l-2.582-1.958
						C40.705,66.269,40.705,66.446,40.705,66.715z"/>
					<path fill="#FFFFFF" d="M46.582,84.082l0.179,0.269c0.089-0.091,0.178-0.18,0.178-0.269H46.582z"/>
				</g>
				<g>
					<path fill="#FFFFFF" d="M83.991,47.833c0,0.267-0.089,0.445-0.268,0.445c0,0-0.178-0.178-0.445-0.445H83.991z"/>
					<polygon fill="#FFFFFF" points="85.594,52.464 85.238,52.108 85.771,52.108 85.771,52.196 					"/>
					<polygon fill="#FFFFFF" points="73.925,44.092 73.836,44.27 73.303,44.092 					"/>
					<path fill="#FFFFFF" d="M77.133,60.303c-0.089,0.177-0.089,0.177-0.179,0.266l-0.623-0.266H77.133z"/>
					<path fill="#FFFFFF" d="M85.594,63.598c-0.089,0-0.178-0.089-0.356-0.177h0.534L85.594,63.598z"/>
					<path fill="#FFFFFF" d="M85.238,65.913l-0.178,0.268c-0.089,0.088-0.179-0.089-0.356-0.268H85.238z"/>
					<path fill="#FFFFFF" d="M85.771,74.642h0.445c0.09-0.088,0.179,0,0.179,0l-0.625,0.623l-0.267,0.089
						c-0.178,0-0.267-0.089-0.267-0.177L85.771,74.642z"/>
					<path fill="#FFFFFF" d="M81.497,79.271c-0.179,0.181-0.179,0.447-0.267,0.626c0,0.176,0.088,0.355,0.267,0.445
						c-0.446-0.09-0.624-0.27-0.624-0.445C81.14,79.629,81.318,79.452,81.497,79.271z"/>
					<path fill="#FFFFFF" d="M83.723,48.278c0.179,0,0.268-0.178,0.268-0.445h-0.713C83.545,48.1,83.723,48.278,83.723,48.278z"/>
					<polygon fill="#FFFFFF" points="85.238,52.108 85.594,52.464 85.771,52.196 85.771,52.108 					"/>
					<polygon fill="#FFFFFF" points="73.836,44.27 73.925,44.092 73.303,44.092 					"/>
					<path fill="#FFFFFF" d="M76.954,60.569c0.09-0.088,0.09-0.088,0.179-0.266h-0.802L76.954,60.569z"/>
					<path fill="#FFFFFF" d="M85.238,63.421c0.178,0.087,0.267,0.177,0.356,0.177l0.178-0.177H85.238z"/>
					<path fill="#FFFFFF" d="M85.06,66.181l0.178-0.268h-0.535C84.881,66.092,84.97,66.269,85.06,66.181z"/>
					<path fill="#FFFFFF" d="M86.217,74.642h-0.445l-0.534,0.535c0,0.088,0.089,0.177,0.267,0.177l0.267-0.089l0.625-0.623
						C86.396,74.642,86.307,74.554,86.217,74.642z"/>
					<path fill="#FFFFFF" d="M81.23,79.897c0.088-0.179,0.088-0.445,0.267-0.626c-0.179,0.181-0.357,0.357-0.624,0.626
						c0,0.176,0.178,0.355,0.624,0.445C81.318,80.253,81.23,80.073,81.23,79.897z"/>
					<path fill="#FFFFFF" d="M99.666,68.585c-0.089-0.979-0.712-1.781-2.048-2.048c0.445-1.158,0.802-2.762,1.069-4.898
						c0.445-2.495,0.712-4.187,0.89-4.989c-0.89-0.445-1.335-1.157-1.335-2.227c0-0.623,0.178-1.424,0.445-2.494
						c0.178-1.157,0.267-1.959,0.356-2.493c-0.09-1.514-0.891-2.405-2.495-2.85v-1.425c-0.089-1.515,0.089-2.762,0.446-3.653
						c-0.802-0.534-2.405-1.424-4.721-2.493c-2.672-1.248-4.097-1.87-4.453-1.87c-1.07,0-2.405-0.268-4.098-0.803
						c-1.781-0.533-3.028-0.801-3.83-0.801c-1.336,0-2.494,0.534-3.563,1.604c-0.802-0.624-1.515-0.891-2.138-0.891
						c-0.622-0.09-1.425,0.623-2.405,2.137c-0.98,1.335-1.96,2.048-2.939,2.048c-0.356,0-0.801-0.089-1.247-0.177
						c-0.178,0.979-0.713,2.315-1.692,4.008c-0.891,1.691-1.336,3.117-1.425,4.185c-0.267,2.94-0.624,5.256-1.069,6.681
						c0.712,0.892,1.158,2.05,1.069,3.563c0.089,0.445,0,1.425-0.178,2.94c-0.268,1.514-0.446,2.582-0.446,3.295
						c0,1.604,0.446,2.761,1.336,3.651l0.179,0.802c-0.089,0.714-0.356,1.604-0.802,2.85c-0.356,1.159-0.535,1.961-0.445,2.405
						c-0.09,0.445,0.089,0.802,0.624,1.248c0.534,0.533,0.801,1.067,0.891,1.424c0,0.088-0.179,0.266-0.447,0.446l-0.178,0.89
						c0.089,1.87,0.713,3.829,1.781,5.968c1.248,2.227,2.406,3.385,3.653,3.297l0.355-0.179c3.475,2.671,7.215,3.919,11.313,4.007
						c0.801,0,1.691-0.088,2.583-0.178l0.535-1.336c0.267,0.089,0.623,0.089,1.158,0.089c2.137,0,4.007-0.535,5.878-1.692
						c1.871-1.247,3.295-2.851,4.275-4.631c-0.177-0.625-0.267-1.07-0.267-1.336c0-0.891,0.445-1.604,1.335-2.315v-1.071
						c0-0.71,0.178-1.692,0.624-2.938c0.445-1.247,0.712-2.137,0.802-2.852c-0.09-0.711,0-1.513,0.268-2.492
						C99.488,69.92,99.666,69.029,99.666,68.585z M92.096,40.262c0.356,0.267,0.534,0.445,0.534,0.712
						c0,0.179-0.178,0.446-0.534,0.534c-0.267-0.088-0.446-0.355-0.446-0.534C91.65,40.707,91.829,40.529,92.096,40.262z
						 M73.925,38.391c0.268,0.178,0.446,0.445,0.446,0.624c0,0.267-0.178,0.445-0.446,0.711c-0.354-0.266-0.534-0.444-0.444-0.711
						C73.392,38.836,73.571,38.569,73.925,38.391z M67.602,82.212c-0.267-0.267-0.355-0.532-0.355-0.713
						c0-0.178,0.089-0.356,0.355-0.534c0.356,0.178,0.534,0.356,0.534,0.534C68.136,81.68,67.958,81.945,67.602,82.212z
						 M76.331,89.07c-0.179-0.268-0.356-0.445-0.268-0.712c-0.089-0.179,0.089-0.356,0.268-0.623
						c0.355,0.267,0.533,0.444,0.533,0.623C76.864,88.625,76.686,88.803,76.331,89.07z M87.821,89.07
						c-0.356-0.268-0.535-0.445-0.535-0.712c0-0.179,0.178-0.356,0.535-0.623c0.178,0.267,0.356,0.444,0.267,0.623
						C88.177,88.625,87.999,88.803,87.821,89.07z M92.096,86.666c-0.267-0.269-0.446-0.534-0.446-0.803
						c0-0.176,0.179-0.355,0.446-0.533c0.356,0.178,0.534,0.357,0.534,0.533C92.63,86.132,92.452,86.397,92.096,86.666z
						 M96.014,53.178c0,0.445-0.266,1.336-0.801,2.403c-0.536,1.16-0.713,2.05-0.624,2.85l-0.177,0.803
						c0,1.07,0.89,1.692,2.672,1.96c0.089,0.354-0.267,0.623-0.981,0.711c-0.623,0.088-1.157,0.178-1.514,0.178
						c0.891,0.623,1.336,1.337,1.336,2.048c0,0.356,0,0.891-0.178,1.604c-0.179,0.624-0.268,1.157-0.356,1.513
						c0,0.446,0.089,0.891,0.356,1.337c-0.624,0.268-0.981,0.534-0.891,0.891c-0.09,0.269,0.089,0.713,0.356,1.159
						c0.267,0.533,0.535,0.802,0.535,0.979c0.89-0.178,1.336,0,1.336,0.622l-0.089,0.535c-1.426-0.179-2.495,0.267-3.118,1.426
						c0.268,0.177,0.712,0.444,1.336,0.802c0.624,0.178,1.069,0.444,1.335,0.71l-0.89,1.07c-0.445,0.446-0.624,0.8-0.713,1.157
						l0.268,0.444c0.355,0.181,0.535,0.357,0.535,0.625c0,0.446-0.446,0.979-1.159,1.337c-0.534-0.802-1.068-1.247-1.604-1.247
						c-0.623,0-0.979,0.533-1.068,1.602c0.088,0.536,0.445,0.891,1.157,1.07c0.713,0.266,1.07,0.533,1.07,0.891l-0.268,0.711
						c-0.802-0.445-1.425-0.622-1.959-0.711c-0.623,0-1.248,0.623-1.692,1.869c-0.624,1.16-1.158,1.782-1.693,1.782
						c-0.534,0-1.158-0.356-1.959-0.979c-0.802,0.267-1.158,0.712-1.247,1.336c0,0.267,0.089,0.534,0.267,0.712
						c0.089,0.357-0.267,0.712-0.891,0.98c-0.624-0.892-1.246-1.426-1.871-1.426c-0.267,0-1.158,0.268-2.672,0.803l-0.535,1.959
						c-0.355-0.179-0.623-0.356-0.623-0.624c0-0.178,0.178-0.445,0.356-0.712c0.266-0.269,0.445-0.535,0.445-0.713L79.625,87.2
						c-0.177,0.089-0.355,0.089-0.623,0c-0.624,0-1.425-0.268-2.317-0.891c-0.979-0.713-1.691-1.068-2.136-0.979
						c-0.713-0.089-1.158,0.802-1.247,2.405c-0.268-0.18-0.356-0.446-0.356-0.803c0-2.049-0.713-3.028-2.049-3.028l-1.069-0.089
						c-0.267-0.09-0.445-0.446-0.355-0.892v-0.712c0.712-0.356,0.98-0.802,0.98-1.247c0-0.177-0.089-0.533-0.357-0.892
						c-0.445-0.532-0.623-0.889-0.623-0.978l-1.158,0.533l-1.068-1.248c0.089-0.355,0.444-0.711,1.068-1.067l1.781,0.446
						l0.712-1.248c-0.712,0.089-1.424-0.268-2.315-1.158c-0.891-0.8-1.693-1.246-2.315-1.156H65.91l1.692-0.356
						c0.98-0.269,1.515-0.623,1.515-1.069c0-0.444-0.534-0.89-1.515-1.426c-0.802-0.534-1.158-0.979-1.069-1.336
						c0-0.266,0.267-0.623,1.069-0.891L66.8,67.605c0-0.445,0.268-1.068,0.713-1.958c0.534-0.714,0.802-1.337,0.802-1.604
						c0-0.535-0.446-0.802-1.336-0.713l-1.069,0.091l-0.089-0.537c0-0.534,0.356-0.891,0.979-0.8h0.447
						c0,0.355,0.178,0.623,0.355,0.623c0.356,0,0.624-0.177,0.98-0.445c0.355-0.445,0.534-0.802,0.534-1.067
						c0-0.981-0.534-1.516-1.515-1.604c-0.802,0-1.247-0.177-1.247-0.534l0.178-0.625h0.446c0.178,0,0.534,0.091,1.068,0.268
						c0.445,0.089,0.801,0.089,1.069,0.178c0.356-0.089,0.711-0.446,0.979-1.157c-1.603,0.177-2.583-0.089-2.939-0.892
						c-0.089-0.534,0.09-1.247,0.445-2.049c0.445-0.802,0.713-1.425,0.713-1.87c0-0.802-0.802-1.248-2.405-1.248
						c0.179-0.266,0.445-0.445,0.802-0.445c0.356,0,0.802,0.268,1.336,0.712c0.268,0.089,0.445-0.088,0.712-0.267
						c0.178-0.266,0.357-0.535,0.357-0.624c0-1.246-0.09-1.959-0.179-2.048c0-0.891-0.355-1.335-0.89-1.248
						c-0.268,0-0.445,0.09-0.801,0.357l-0.268,0.355c-0.179-0.089-0.268-0.267-0.446-0.623c0.09-0.178,0.267-0.357,0.446-0.357
						l1.781,0.267c0.624-0.087,0.98-0.534,1.068-1.336c-0.088-0.8-0.801-1.425-2.226-1.781l2.226,0.09
						c0.979-0.09,1.783-0.536,2.316-1.426c-0.624-0.178-0.801-0.712-0.712-1.514v-0.267c0.268-0.355,0.801-0.534,1.603-0.534h0.268
						c0.534,0.624,0.979,0.979,1.247,0.979c0.445-0.089,0.891-0.624,1.335-1.692c0.357-1.069,0.801-1.514,1.248-1.514
						c0.534,0,1.157,0.444,1.87,1.514h0.445c1.069,0,1.692-0.98,1.782-2.941c0.444,0.357,0.623,0.714,0.712,1.07
						c-0.356,0.089-0.534,0.357-0.445,0.624c-0.089,0.356,0.355,0.802,1.156,1.247c0.892-1.514,1.604-2.317,2.139-2.227
						c0.356-0.09,0.712,0.534,0.979,1.691c0.268,1.248,0.625,1.872,0.891,1.96c0.357-0.089,0.891-0.891,1.604-2.672
						c0.712,0.178,1.069,0.711,0.98,1.692v1.603c0.089,0.534,0.355,0.801,0.712,0.801c0.177,0,0.445-0.178,0.801-0.355
						c0.445,0.624,1.247,1.068,2.494,1.424c1.069,0.267,1.603,0.536,1.603,0.891c-0.09,0.268-0.357,0.802-0.98,1.515
						c0.179,0.268,0.356,0.801,0.535,1.514c0.088,0.801,0.355,1.246,0.801,1.602c0.267,0,0.535,0,0.712-0.088
						c0.356,0,0.712,0,0.891,0.088c0.267,0.09,0.356,0.268,0.267,0.446l-0.089,0.89l-0.446,0.089c-0.267,0-0.535-0.178-0.89-0.445
						c-0.445-0.356-0.802-0.445-0.981-0.534c-0.266,0.088-0.533,0.356-0.801,0.89C95.302,51.484,96.014,52.196,96.014,53.178z"/>
					<path fill="#FFFFFF" d="M84.97,54.602c-0.357,0-0.624,0.178-0.979,0.534c-0.98-0.445-1.514-0.891-1.425-1.335
						c-0.089-0.268,0.087-0.623,0.355-1.248c0.356-0.535,0.536-0.98,0.536-1.336c0-0.356-0.089-0.712-0.179-1.069
						c-0.625,0.177-1.068,0.268-1.336,0.268c-0.534,0-0.802-0.355-0.712-0.98v-0.89c0.088-0.357,0-0.713,0-1.07
						c-0.179-0.178-0.356-0.267-0.713-0.267h-0.356c0.178,0.356,0.178,0.713,0.178,0.891c0,0.355-0.178,0.712-0.445,1.246
						c-0.179,0.535-0.355,0.979-0.355,1.336c0,0.268,0.177,0.535,0.534,0.535c0.445,0,0.891-0.09,1.425-0.179
						c0.355,0.089,0.535,0.446,0.445,1.07c0.09,0.802-0.178,1.247-0.712,1.335l-0.713-0.178c-0.356-0.088-0.713-0.179-0.979-0.088
						c-0.357,0-0.535,0.177-0.535,0.623c0,0.268,0.088,0.356,0.268,0.356l0.355-0.18l0.892,0.891
						c0.445,0.446,0.623,0.803,0.713,1.159c-0.09,0.356-0.356,0.713-1.069,1.067c0.178,0.446,0.178,0.891,0.178,1.159
						c0,0.445-0.089,0.979-0.445,1.604c-0.268,0.8-0.445,1.336-0.445,1.781c0,0.354,0.356,0.623,0.891,0.623
						c0.356,0,0.712-0.089,1.158-0.178c0.355,0.267,0.535,0.713,0.445,1.157c0.09,0.891-0.178,1.335-0.712,1.335l-0.891-0.088
						c-0.267-0.178-0.535-0.178-0.801-0.268c-0.357,0-0.535,0.268-0.535,0.713c0,0.356,0.178,0.445,0.623,0.535l0.892,0.891
						c0.445,0.355,0.623,0.712,0.713,0.978c-0.09,0.446-0.356,0.802-1.069,1.248c0.178,0.444,0.178,0.802,0.178,0.979
						c0,0.446-0.089,0.982-0.267,1.604c-0.178,0.623-0.268,1.159-0.268,1.604c0,0.979,0.713,1.426,2.138,1.426v0.444
						c0.179,0.891-0.178,1.248-0.979,1.248c-0.268,0-0.624-0.09-1.069-0.269c-0.355-0.268-0.623-0.356-0.712-0.356h-0.178
						l-0.179,0.713c0,0.356,0.447,0.623,1.337,0.802c0.979,0.266,1.514,0.8,1.514,1.602c0,0.181-0.088,0.357-0.088,0.625
						c0.088-0.179,0.178-0.356,0.356-0.625c0.445-0.711,0.624-1.246,0.624-1.602c-0.089-0.356-0.267-0.713-0.624-1.07
						c0.979-0.355,1.426-1.067,1.426-2.137c0-1.245,0-1.87,0-1.958c0.089-0.624,0.355-1.068,0.623-1.337
						c-1.158-0.268-1.692-0.802-1.781-1.514c0-0.445,0.178-0.891,0.444-1.516c0.268-0.533,0.357-0.979,0.446-1.247
						c-0.089-0.532-0.446-1.067-1.158-1.425c0.891-0.533,1.426-1.424,1.604-2.76l0.445-3.386c-0.089-0.088-0.623-0.088-1.425,0
						c-0.624,0-0.98-0.177-1.069-0.711l0.177-1.247c0.089-0.357,0.357-0.535,0.892-0.535c0.712,0,1.246,0.267,1.425,0.712
						c0.088-0.177,0.267-0.445,0.802-0.8c0.267-0.357,0.445-0.625,0.445-0.803v-0.268L84.97,54.602z M82.566,71.614
						c-0.089,0.177-0.267,0.355-0.624,0.622c-0.268-0.267-0.356-0.445-0.268-0.622c-0.088-0.269,0-0.535,0.268-0.714
						C82.299,71.079,82.477,71.346,82.566,71.614z M81.942,59.767c0.357,0.09,0.535,0.268,0.624,0.445
						c-0.089,0.268-0.267,0.445-0.624,0.713c-0.268-0.269-0.356-0.445-0.268-0.713C81.586,60.035,81.674,59.857,81.942,59.767z"/>
				</g>
				<g>
					<path fill="#FFFFFF" d="M200.981,47.521c0,0.267-0.09,0.445-0.268,0.445c0,0-0.178-0.179-0.445-0.445H200.981z"/>
					<polygon fill="#FFFFFF" points="202.584,52.152 202.228,51.797 202.762,51.797 202.762,51.884 					"/>
					<polygon fill="#FFFFFF" points="190.916,43.78 190.827,43.958 190.292,43.78 					"/>
					<path fill="#FFFFFF" d="M194.123,59.992c-0.089,0.176-0.089,0.176-0.179,0.266l-0.623-0.266H194.123z"/>
					<path fill="#FFFFFF" d="M202.584,63.287c-0.09,0-0.179-0.089-0.356-0.178h0.534L202.584,63.287z"/>
					<path fill="#FFFFFF" d="M202.228,65.602l-0.179,0.269c-0.089,0.087-0.179-0.089-0.356-0.269H202.228z"/>
					<path fill="#FFFFFF" d="M202.762,74.33h0.444c0.09-0.087,0.18,0,0.18,0l-0.624,0.623l-0.268,0.088
						c-0.178,0-0.267-0.088-0.267-0.176L202.762,74.33z"/>
					<path fill="#FFFFFF" d="M198.488,78.961c-0.179,0.18-0.179,0.445-0.268,0.625c0,0.177,0.088,0.355,0.268,0.445
						c-0.447-0.09-0.625-0.269-0.625-0.445C198.131,79.317,198.309,79.141,198.488,78.961z"/>
					<path fill="#FFFFFF" d="M200.713,47.967c0.178,0,0.268-0.179,0.268-0.445h-0.713C200.536,47.788,200.713,47.967,200.713,47.967
						z"/>
					<polygon fill="#FFFFFF" points="202.228,51.797 202.584,52.152 202.762,51.884 202.762,51.797 					"/>
					<polygon fill="#FFFFFF" points="190.827,43.958 190.916,43.78 190.292,43.78 					"/>
					<path fill="#FFFFFF" d="M193.944,60.258c0.09-0.089,0.09-0.089,0.179-0.266h-0.802L193.944,60.258z"/>
					<path fill="#FFFFFF" d="M202.228,63.109c0.178,0.089,0.267,0.178,0.356,0.178l0.178-0.178H202.228z"/>
					<path fill="#FFFFFF" d="M202.049,65.87l0.179-0.269h-0.535C201.871,65.781,201.96,65.957,202.049,65.87z"/>
					<path fill="#FFFFFF" d="M203.207,74.33h-0.444l-0.534,0.535c0,0.088,0.089,0.176,0.267,0.176l0.268-0.088l0.624-0.623
						C203.386,74.33,203.296,74.243,203.207,74.33z"/>
					<path fill="#FFFFFF" d="M198.22,79.586c0.088-0.18,0.088-0.445,0.268-0.625c-0.179,0.18-0.357,0.356-0.625,0.625
						c0,0.177,0.178,0.355,0.625,0.445C198.309,79.941,198.22,79.763,198.22,79.586z"/>
					<path fill="#FFFFFF" d="M216.656,68.273c-0.088-0.979-0.712-1.781-2.047-2.047c0.444-1.159,0.801-2.762,1.068-4.899
						c0.445-2.495,0.713-4.188,0.891-4.989c-0.891-0.445-1.337-1.157-1.337-2.227c0-0.623,0.179-1.425,0.446-2.494
						c0.178-1.158,0.267-1.959,0.356-2.493c-0.09-1.514-0.892-2.406-2.495-2.851v-1.425c-0.089-1.515,0.09-2.762,0.445-3.653
						c-0.801-0.534-2.403-1.424-4.721-2.493c-2.671-1.248-4.097-1.87-4.452-1.87c-1.069,0-2.405-0.268-4.098-0.802
						c-1.782-0.534-3.028-0.801-3.829-0.801c-1.336,0-2.495,0.534-3.563,1.604c-0.802-0.623-1.514-0.891-2.138-0.891
						c-0.622-0.09-1.424,0.623-2.404,2.137c-0.979,1.335-1.959,2.048-2.939,2.048c-0.356,0-0.801-0.089-1.247-0.178
						c-0.178,0.98-0.712,2.316-1.692,4.009c-0.89,1.692-1.336,3.117-1.425,4.186c-0.267,2.94-0.624,5.256-1.068,6.681
						c0.711,0.891,1.157,2.049,1.068,3.563c0.089,0.445,0,1.425-0.178,2.94c-0.268,1.514-0.446,2.582-0.446,3.295
						c0,1.604,0.446,2.761,1.336,3.651l0.178,0.802c-0.089,0.714-0.355,1.604-0.802,2.851c-0.356,1.158-0.534,1.96-0.445,2.404
						c-0.089,0.445,0.089,0.803,0.625,1.248c0.534,0.534,0.801,1.067,0.891,1.425c0,0.087-0.179,0.266-0.446,0.445l-0.177,0.891
						c0.088,1.869,0.711,3.828,1.78,5.967c1.248,2.227,2.406,3.385,3.652,3.297l0.356-0.179c3.473,2.672,7.214,3.919,11.312,4.008
						c0.801,0,1.692-0.089,2.583-0.178l0.535-1.336c0.267,0.088,0.623,0.088,1.158,0.088c2.138,0,4.008-0.534,5.877-1.692
						c1.871-1.246,3.296-2.85,4.275-4.63c-0.177-0.625-0.266-1.07-0.266-1.337c0-0.891,0.444-1.604,1.336-2.315v-1.07
						c0-0.711,0.177-1.692,0.622-2.938c0.446-1.248,0.713-2.138,0.803-2.852c-0.09-0.712,0-1.514,0.268-2.493
						C216.479,69.609,216.656,68.719,216.656,68.273z M209.085,39.95c0.356,0.268,0.535,0.446,0.535,0.713
						c0,0.179-0.179,0.446-0.535,0.534c-0.267-0.088-0.444-0.355-0.444-0.534C208.641,40.396,208.819,40.218,209.085,39.95z
						 M190.916,38.08c0.267,0.178,0.445,0.445,0.445,0.624c0,0.267-0.178,0.446-0.445,0.712c-0.355-0.266-0.534-0.445-0.445-0.712
						C190.381,38.525,190.561,38.257,190.916,38.08z M184.592,81.9c-0.267-0.267-0.355-0.532-0.355-0.713
						c0-0.178,0.089-0.356,0.355-0.534c0.357,0.178,0.534,0.356,0.534,0.534C185.126,81.368,184.949,81.634,184.592,81.9z
						 M193.321,88.76c-0.179-0.268-0.356-0.446-0.268-0.713c-0.089-0.178,0.089-0.356,0.268-0.623
						c0.356,0.267,0.534,0.445,0.534,0.623C193.855,88.313,193.677,88.492,193.321,88.76z M204.811,88.76
						c-0.356-0.268-0.534-0.446-0.534-0.713c0-0.178,0.178-0.356,0.534-0.623c0.178,0.267,0.355,0.445,0.267,0.623
						C205.167,88.313,204.989,88.492,204.811,88.76z M209.085,86.354c-0.267-0.269-0.444-0.534-0.444-0.802
						c0-0.177,0.178-0.356,0.444-0.534c0.356,0.178,0.535,0.357,0.535,0.534C209.621,85.82,209.442,86.086,209.085,86.354z
						 M213.004,52.867c0,0.445-0.267,1.335-0.802,2.403c-0.534,1.159-0.712,2.05-0.622,2.849l-0.179,0.803
						c0,1.07,0.89,1.692,2.672,1.96c0.089,0.354-0.268,0.623-0.98,0.711c-0.622,0.088-1.157,0.179-1.513,0.179
						c0.891,0.623,1.335,1.336,1.335,2.047c0,0.357,0,0.891-0.178,1.604c-0.179,0.622-0.267,1.156-0.356,1.513
						c0,0.445,0.09,0.891,0.356,1.336c-0.624,0.268-0.98,0.534-0.891,0.891c-0.09,0.269,0.089,0.713,0.355,1.159
						c0.269,0.533,0.535,0.802,0.535,0.979c0.891-0.178,1.336,0,1.336,0.623l-0.09,0.534c-1.425-0.178-2.493,0.268-3.117,1.426
						c0.268,0.177,0.714,0.444,1.336,0.802c0.624,0.178,1.07,0.445,1.336,0.71l-0.891,1.07c-0.445,0.446-0.623,0.801-0.712,1.157
						l0.267,0.445c0.356,0.18,0.535,0.356,0.535,0.625c0,0.445-0.446,0.979-1.157,1.336c-0.535-0.802-1.069-1.247-1.604-1.247
						c-0.623,0-0.979,0.533-1.067,1.602c0.088,0.536,0.444,0.892,1.156,1.07c0.713,0.267,1.069,0.533,1.069,0.891l-0.268,0.712
						c-0.802-0.445-1.425-0.623-1.958-0.712c-0.624,0-1.248,0.623-1.692,1.87c-0.624,1.159-1.159,1.781-1.692,1.781
						c-0.535,0-1.158-0.356-1.96-0.979c-0.802,0.266-1.158,0.713-1.247,1.336c0,0.267,0.089,0.534,0.268,0.713
						c0.089,0.356-0.268,0.711-0.892,0.979c-0.623-0.891-1.246-1.426-1.87-1.426c-0.267,0-1.158,0.268-2.672,0.803l-0.534,1.959
						c-0.356-0.179-0.624-0.356-0.624-0.623c0-0.179,0.178-0.446,0.356-0.713c0.268-0.269,0.446-0.535,0.446-0.713l-0.179-0.445
						c-0.179,0.089-0.356,0.089-0.624,0c-0.623,0-1.425-0.268-2.315-0.891c-0.979-0.714-1.692-1.068-2.138-0.979
						c-0.712-0.089-1.158,0.802-1.247,2.405c-0.268-0.179-0.356-0.446-0.356-0.803c0-2.048-0.712-3.028-2.048-3.028l-1.069-0.089
						c-0.267-0.089-0.445-0.445-0.356-0.891V81.9c0.712-0.356,0.979-0.801,0.979-1.247c0-0.177-0.089-0.532-0.357-0.891
						c-0.445-0.533-0.623-0.89-0.623-0.979l-1.158,0.533l-1.068-1.247c0.089-0.356,0.445-0.711,1.068-1.067l1.781,0.445l0.713-1.247
						c-0.713,0.088-1.425-0.269-2.316-1.16c-0.891-0.798-1.692-1.244-2.315-1.155H182.9l1.692-0.356
						c0.98-0.269,1.515-0.623,1.515-1.069c0-0.444-0.534-0.89-1.515-1.425c-0.802-0.535-1.157-0.98-1.068-1.337
						c0-0.266,0.267-0.623,1.068-0.891l-0.802-1.514c0-0.445,0.267-1.067,0.713-1.958c0.535-0.714,0.802-1.337,0.802-1.604
						c0-0.534-0.445-0.802-1.335-0.713l-1.069,0.09l-0.089-0.536c0-0.534,0.356-0.891,0.979-0.8h0.446
						c0,0.355,0.178,0.623,0.355,0.623c0.357,0,0.624-0.177,0.98-0.445c0.355-0.445,0.534-0.802,0.534-1.068
						c0-0.981-0.534-1.516-1.515-1.604c-0.802,0-1.247-0.178-1.247-0.534l0.178-0.625h0.446c0.177,0,0.534,0.091,1.069,0.268
						c0.444,0.089,0.801,0.089,1.068,0.178c0.356-0.089,0.712-0.446,0.979-1.156c-1.603,0.177-2.583-0.089-2.939-0.891
						c-0.089-0.534,0.09-1.248,0.445-2.049c0.446-0.803,0.713-1.425,0.713-1.87c0-0.802-0.802-1.248-2.405-1.248
						c0.178-0.267,0.445-0.445,0.802-0.445c0.355,0,0.801,0.268,1.336,0.712c0.267,0.089,0.444-0.088,0.712-0.267
						c0.178-0.267,0.356-0.535,0.356-0.624c0-1.247-0.089-1.959-0.179-2.048c0-0.891-0.355-1.336-0.89-1.248
						c-0.267,0-0.446,0.09-0.802,0.357l-0.267,0.356c-0.179-0.089-0.268-0.267-0.446-0.623c0.089-0.179,0.267-0.357,0.446-0.357
						l1.781,0.267c0.624-0.088,0.979-0.534,1.069-1.335c-0.089-0.802-0.802-1.425-2.227-1.781l2.227,0.089
						c0.98-0.089,1.782-0.536,2.316-1.426c-0.624-0.178-0.802-0.711-0.713-1.514v-0.268c0.268-0.355,0.802-0.534,1.603-0.534h0.268
						c0.535,0.623,0.979,0.979,1.247,0.979c0.445-0.089,0.891-0.623,1.335-1.692c0.357-1.068,0.802-1.514,1.248-1.514
						c0.535,0,1.158,0.445,1.87,1.514h0.445c1.069,0,1.693-0.98,1.782-2.94c0.445,0.357,0.622,0.714,0.711,1.07
						c-0.355,0.089-0.534,0.356-0.444,0.624c-0.09,0.356,0.354,0.802,1.157,1.247c0.891-1.514,1.603-2.316,2.138-2.226
						c0.356-0.09,0.712,0.534,0.979,1.691c0.267,1.248,0.624,1.871,0.891,1.96c0.356-0.089,0.891-0.89,1.604-2.672
						c0.712,0.178,1.068,0.712,0.979,1.693v1.603c0.089,0.534,0.356,0.801,0.713,0.801c0.178,0,0.445-0.178,0.801-0.356
						c0.445,0.624,1.247,1.069,2.495,1.424c1.068,0.268,1.603,0.536,1.603,0.891c-0.09,0.268-0.356,0.803-0.98,1.515
						c0.179,0.268,0.356,0.802,0.535,1.514c0.089,0.802,0.355,1.247,0.801,1.602c0.269,0,0.535,0,0.713-0.087
						c0.357,0,0.713,0,0.891,0.087c0.268,0.09,0.356,0.268,0.268,0.447l-0.09,0.89l-0.445,0.089c-0.266,0-0.534-0.177-0.891-0.445
						c-0.445-0.356-0.801-0.445-0.979-0.534c-0.267,0.088-0.534,0.356-0.802,0.89C212.292,51.173,213.004,51.884,213.004,52.867z"/>
					<path fill="#FFFFFF" d="M201.96,54.291c-0.356,0-0.623,0.178-0.979,0.534c-0.98-0.445-1.514-0.891-1.425-1.335
						c-0.089-0.269,0.088-0.623,0.355-1.248c0.356-0.535,0.535-0.98,0.535-1.336c0-0.356-0.09-0.712-0.179-1.068
						c-0.624,0.178-1.069,0.268-1.336,0.268c-0.534,0-0.801-0.356-0.711-0.98v-0.891c0.088-0.357,0-0.712,0-1.07
						c-0.179-0.178-0.357-0.267-0.713-0.267h-0.356c0.179,0.355,0.179,0.713,0.179,0.891c0,0.356-0.179,0.713-0.445,1.247
						c-0.179,0.535-0.356,0.98-0.356,1.336c0,0.268,0.178,0.535,0.534,0.535c0.445,0,0.89-0.089,1.426-0.178
						c0.354,0.089,0.534,0.446,0.444,1.07c0.09,0.802-0.178,1.247-0.711,1.335l-0.713-0.177c-0.356-0.088-0.711-0.179-0.979-0.088
						c-0.357,0-0.535,0.177-0.535,0.623c0,0.268,0.088,0.356,0.268,0.356l0.356-0.18l0.89,0.891
						c0.445,0.445,0.624,0.802,0.713,1.159c-0.089,0.356-0.357,0.713-1.07,1.068c0.179,0.445,0.179,0.891,0.179,1.159
						c0,0.445-0.09,0.98-0.445,1.604c-0.268,0.801-0.446,1.337-0.446,1.781c0,0.355,0.357,0.624,0.891,0.624
						c0.356,0,0.712-0.089,1.159-0.178c0.354,0.266,0.534,0.712,0.444,1.157c0.09,0.891-0.178,1.335-0.711,1.335l-0.891-0.087
						c-0.267-0.179-0.534-0.179-0.801-0.269c-0.357,0-0.535,0.269-0.535,0.713c0,0.357,0.178,0.445,0.624,0.534l0.89,0.891
						c0.445,0.357,0.624,0.713,0.713,0.979c-0.089,0.445-0.357,0.802-1.07,1.247c0.179,0.445,0.179,0.802,0.179,0.979
						c0,0.445-0.09,0.981-0.267,1.604c-0.178,0.623-0.267,1.159-0.267,1.604c0,0.979,0.711,1.426,2.136,1.426v0.444
						c0.179,0.892-0.178,1.248-0.979,1.248c-0.267,0-0.623-0.091-1.068-0.268c-0.356-0.27-0.624-0.357-0.713-0.357h-0.178
						l-0.178,0.714c0,0.356,0.446,0.622,1.336,0.801c0.98,0.267,1.515,0.801,1.515,1.603c0,0.18-0.089,0.356-0.089,0.625
						c0.089-0.18,0.178-0.356,0.355-0.625c0.445-0.711,0.625-1.247,0.625-1.603c-0.089-0.355-0.268-0.713-0.625-1.07
						c0.98-0.356,1.425-1.067,1.425-2.137c0-1.245,0-1.869,0-1.958c0.09-0.624,0.356-1.068,0.624-1.337
						c-1.158-0.268-1.692-0.802-1.782-1.514c0-0.445,0.178-0.89,0.445-1.515c0.267-0.533,0.356-0.98,0.446-1.247
						c-0.09-0.534-0.446-1.068-1.159-1.426c0.891-0.533,1.425-1.423,1.604-2.759l0.445-3.386c-0.09-0.088-0.624-0.088-1.425,0
						c-0.625,0-0.98-0.177-1.068-0.71l0.177-1.248c0.089-0.356,0.356-0.534,0.891-0.534c0.712,0,1.246,0.267,1.425,0.712
						c0.089-0.178,0.267-0.445,0.802-0.8c0.267-0.357,0.445-0.625,0.445-0.803v-0.267L201.96,54.291z M199.556,71.303
						c-0.089,0.177-0.268,0.355-0.625,0.623c-0.267-0.268-0.355-0.446-0.267-0.623c-0.089-0.268,0-0.535,0.267-0.714
						C199.289,70.768,199.467,71.035,199.556,71.303z M198.932,59.456c0.357,0.09,0.535,0.268,0.625,0.445
						c-0.089,0.267-0.268,0.445-0.625,0.713c-0.267-0.268-0.355-0.446-0.267-0.713C198.576,59.724,198.665,59.546,198.932,59.456z"
						/>
				</g>
				<g>
					<path fill="#FFFFFF" d="M143.309,57.897v0.268c-0.178-0.089-0.357-0.089-0.534-0.268H143.309z"/>
					<polygon fill="#FFFFFF" points="138.145,55.758 137.698,55.493 138.233,55.493 					"/>
					<path fill="#FFFFFF" d="M141.973,60.569h0.802l0,0l-0.088,0.179C142.508,60.748,142.241,60.657,141.973,60.569z"/>
					<path fill="#FFFFFF" d="M140.281,59.857c-0.089,0.178-0.178,0.266-0.355,0.355c-0.179-0.089-0.536-0.177-0.98-0.355H140.281z"
						/>
					<polygon fill="#FFFFFF" points="161.479,59.857 161.391,60.035 160.945,59.233 					"/>
					<path fill="#FFFFFF" d="M158.718,62.35c0.357,0.089,1.069,0.356,2.227,0.713v1.068c-1.692-0.802-2.494-1.248-2.494-1.603
						C158.362,62.439,158.451,62.35,158.718,62.35z"/>
					<path fill="#FFFFFF" d="M160.231,67.517l-0.356-0.18l-0.088,0.18c-0.445-0.269-0.623-0.445-0.712-0.713
						c0-0.535,0.267-0.803,0.712-0.803c0.267,0,0.534,0.091,0.891,0.358c0.179,0.355,0.267,0.623,0.267,0.889
						c0,0.089-0.088,0.18-0.179,0.269H160.231z"/>
					<path fill="#FFFFFF" d="M151.593,68.051c0,0.177,0.178,0.445,0.534,0.713h-0.089c-0.355-0.09-0.534-0.179-0.534-0.445
						L151.593,68.051z"/>
					<path fill="#FFFFFF" d="M143.754,68.853c-0.088,0-0.266,0-0.445-0.089h0.624C143.933,68.764,143.844,68.853,143.754,68.853z"/>
					<path fill="#FFFFFF" d="M140.281,64.488c-0.623-0.356-1.069-0.445-1.335-0.445s-0.535,0-0.712,0.089
						c0.266-0.356,0.712-0.445,1.068-0.445c0.534,0,0.98,0.089,1.516,0.356l1.157,0.891c-0.088,0-0.266,0-0.534,0
						S140.726,64.757,140.281,64.488z"/>
					<path fill="#FFFFFF" d="M143.309,58.165v-0.268h-0.534C142.952,58.076,143.131,58.076,143.309,58.165z"/>
					<polygon fill="#FFFFFF" points="137.698,55.493 138.145,55.758 138.233,55.493 					"/>
					<path fill="#FFFFFF" d="M142.775,60.569h-0.802c0.268,0.088,0.535,0.179,0.713,0.179L142.775,60.569L142.775,60.569z"/>
					<path fill="#FFFFFF" d="M139.926,60.212c0.177-0.089,0.266-0.177,0.355-0.355h-1.335
						C139.39,60.035,139.747,60.124,139.926,60.212z"/>
					<polygon fill="#FFFFFF" points="161.391,60.035 161.479,59.857 160.945,59.233 					"/>
					<path fill="#FFFFFF" d="M160.945,63.063c-1.158-0.357-1.87-0.625-2.227-0.713c-0.268,0-0.356,0.089-0.268,0.179
						c0,0.354,0.802,0.801,2.494,1.603V63.063z"/>
					<path fill="#FFFFFF" d="M159.875,67.337l0.356,0.18h0.535c0.091-0.089,0.179-0.18,0.179-0.269c0-0.266-0.088-0.533-0.267-0.889
						c-0.357-0.268-0.625-0.358-0.891-0.358c-0.445,0-0.712,0.268-0.712,0.803c0.089,0.268,0.267,0.444,0.712,0.713L159.875,67.337z
						"/>
					<path fill="#FFFFFF" d="M152.127,68.764c-0.356-0.268-0.534-0.536-0.534-0.713l-0.089,0.268c0,0.267,0.178,0.355,0.534,0.445
						H152.127z"/>
					<path fill="#FFFFFF" d="M143.309,68.764c0.179,0.089,0.356,0.089,0.445,0.089c0.09,0,0.179-0.089,0.179-0.089H143.309z"/>
					<path fill="#FFFFFF" d="M138.945,64.043c0.267,0,0.713,0.089,1.335,0.445c0.445,0.269,0.89,0.445,1.158,0.445s0.446,0,0.534,0
						l-1.157-0.891c-0.536-0.268-0.981-0.356-1.516-0.356c-0.355,0-0.802,0.089-1.068,0.445
						C138.411,64.043,138.679,64.043,138.945,64.043z"/>
					<path fill="#FFFFFF" d="M179.116,40.35c-2.495-3.206-5.969-4.72-10.422-4.364l-2.938,0.089c0,0.356-0.178,0.712-0.625,1.246
						c-0.356,0.357-0.711,0.537-1.067,0.537h-2.316c-0.98,0-1.604,0.623-1.959,2.047l-1.069,0.089c-0.624,0-0.89-0.712-0.89-1.958
						c-0.089-1.336-0.625-1.96-1.516-1.96c-1.87,0-2.76,0.625-2.938,1.96c-4.722-1.069-7.928-1.693-9.442-1.96
						c-0.089,0.446-0.355,0.98-0.802,1.604c-0.624,0.624-1.07,0.891-1.515,0.891c-0.8,0-2.048-0.445-3.918-1.424
						c-1.692-0.891-3.028-1.335-4.098-1.335c-0.623,0-1.069,0.088-1.603,0.266c-0.624,1.246-1.604,1.783-2.85,1.783
						c-0.623,0-1.515-0.09-2.405-0.179c-0.979-0.267-1.781-0.357-2.227-0.357c0,0.624-0.356,1.515-1.158,2.673
						c-0.712,1.069-1.068,1.871-1.068,2.583c0,0.267,0.178,0.624,0.268,0.89c0.444,0,0.89,0.268,1.336,0.803
						c0.444,0.355,0.623,0.8,0.711,1.336c-0.089,0.267-0.178,0.979-0.445,2.136c-0.177,1.07-0.267,1.872-0.267,2.318
						c0,1.335,0.623,2.315,1.958,2.938l0.179,0.802c-0.089,0.713-0.268,1.514-0.802,2.494c-0.445,1.157-0.713,1.959-0.713,2.404
						c1.247,0.623,1.96,1.514,1.96,2.761c-0.089,0.891-0.179,1.871-0.267,2.851l-0.178,1.69c-0.089,0.803,0.534,2.05,1.603,3.919
						c-0.267,1.337-0.445,2.495-0.445,3.387c0,0.534,0.089,1.067,0.268,1.692l0.178,2.493c0.802,0.713,1.248,1.604,1.248,2.581
						c0,0.624-0.179,1.694-0.535,3.118c-0.356,1.336-0.624,2.405-0.713,3.118c1.782,0.088,2.672,1.068,2.672,2.761l-0.178,0.712
						c0.446,0.98,0.892,1.426,1.426,1.515c0.533-0.089,1.068-0.355,1.78-0.891c0.535-0.446,1.068-0.712,1.425-0.712l0.356,0.088
						c0.979,0,2.317,0.178,3.831,0.624c1.692,0.535,2.851,0.802,3.652,0.891c1.603-0.089,2.672-0.891,3.295-2.583
						c0.623,0.802,1.424,1.246,2.137,1.246c0.357,0,0.891-0.444,1.603-1.246c0.625-0.891,1.07-1.514,1.337-2.048
						c0.267,0.088,0.624,0.088,1.069,0.267c0.445,0.09,0.712,0.268,0.624,0.445c0.088,0.357,0,0.89-0.266,1.425
						c-0.18,0.535-0.269,0.892-0.269,1.157c0,0.535,0.445,0.981,1.248,1.337c2.671-1.246,4.719-1.869,6.412-1.869
						c1.604,1.335,3.474,1.958,5.7,1.869h1.16c0-1.337,0.979-1.959,2.849-1.869h1.335c1.425-1.604,2.404-3.831,2.849-6.681
						l0.981-7.126c-0.802-0.444-1.159-0.891-1.159-1.158c0-0.355,0.177-0.622,0.713-0.8c-0.179-0.536-0.268-1.159-0.268-1.781
						c0-1.604,0.446-3.563,1.425-5.881c0.891-2.136,1.335-4.008,1.424-5.432c0-1.425-0.533-2.672-1.424-3.741
						c0.178-1.335,0.802-4.096,1.87-8.283C178.224,44.981,178.759,42.22,179.116,40.35z M173.503,39.638v-0.445h0.356
						c0.535,0,0.891,0.178,0.891,0.534l-0.088,0.624l-0.445,0.089C173.681,40.439,173.415,40.172,173.503,39.638z M170.832,38.035
						c0.357,0.089,0.534,0.267,0.534,0.534s-0.177,0.535-0.534,0.624c-0.268-0.089-0.445-0.356-0.445-0.624
						S170.563,38.124,170.832,38.035z M162.727,39.192c0.356,0.178,0.534,0.356,0.623,0.534c-0.089,0.268-0.266,0.446-0.623,0.624
						c-0.356-0.178-0.446-0.356-0.446-0.624C162.281,39.548,162.371,39.371,162.727,39.192z M160.945,46.051
						c0.267,0.178,0.446,0.355,0.446,0.623c0,0.179-0.179,0.446-0.446,0.713c-0.356-0.267-0.534-0.534-0.534-0.713
						C160.411,46.406,160.589,46.229,160.945,46.051z M159.787,49.079c0.267,0.267,0.444,0.445,0.444,0.713
						c0,0.178-0.178,0.356-0.444,0.624c-0.445-0.268-0.623-0.446-0.712-0.624C159.164,49.524,159.342,49.346,159.787,49.079z
						 M157.739,42.131l0.089-0.445h0.266c0.624-0.089,0.89,0.178,0.801,0.712v0.624h-0.356
						C158.005,43.023,157.648,42.755,157.739,42.131z M127.011,58.699c-0.356-0.356-0.535-0.534-0.446-0.802
						c-0.089-0.089,0.089-0.266,0.446-0.534c0.355,0.268,0.534,0.445,0.534,0.534C127.545,58.165,127.366,58.342,127.011,58.699z
						 M147.674,88.18c-0.268-0.266-0.446-0.534-0.357-0.802c-0.088-0.178,0.089-0.445,0.357-0.712
						c0.355,0.267,0.533,0.534,0.622,0.712C148.208,87.646,148.03,87.914,147.674,88.18z M149.632,81.233
						c-0.354-0.269-0.534-0.536-0.445-0.625c-0.088-0.266,0.091-0.535,0.445-0.711c0.18,0.176,0.357,0.445,0.357,0.711
						C149.989,80.697,149.812,80.965,149.632,81.233z M150.969,77.492c-0.445-0.267-0.712-0.447-0.712-0.713
						c0-0.179,0.267-0.445,0.712-0.713c0.267,0.356,0.444,0.534,0.356,0.713C151.414,77.045,151.236,77.226,150.969,77.492z
						 M172.256,81.233c-0.357-0.269-0.534-0.536-0.446-0.625c-0.088-0.266,0.088-0.535,0.446-0.711
						c0.268,0.176,0.445,0.445,0.445,0.711C172.702,80.697,172.524,80.965,172.256,81.233z M175.641,48.545
						c-0.089,0-0.445-0.09-0.979-0.268c-0.536-0.269-0.891-0.356-1.159-0.445c-0.356,0.089-0.623,0.356-0.713,0.713
						c0.891,1.068,1.336,1.87,1.427,2.582v2.584c-1.158,1.781-1.692,3.474-1.692,5.165c0,1.247,0.356,2.406,0.979,3.474h1.159
						c-0.267,0.268-0.536,0.356-0.891,0.356c-0.356,0-0.802-0.268-1.247-0.801c-0.714,0-0.979,0.445-1.07,1.335
						c0.091,0.891,0.356,1.424,0.802,1.693c0.268,0,0.534,0,0.802,0c0.267,0.089,0.445,0.356,0.445,0.623v0.624
						c-1.514-0.268-2.583,0.179-3.294,1.336l0.622,1.247c0.178-0.09,0.445-0.09,0.802-0.09s0.623,0,0.891,0
						c0.266,0.09,0.445,0.179,0.445,0.445l-0.179,0.801l-1.335,0.715c0.091,1.247-0.178,3.116-0.891,5.699
						c-0.711,2.762-0.979,4.631-0.979,5.699c0,0.625,0.268,0.981,0.979,0.981c0.802,0.089,1.159,0.267,1.247,0.534l-0.356,0.802
						c-1.514-0.269-2.761-0.091-3.741,0.445l0.714,1.514c1.246-0.356,1.959-0.178,1.959,0.623l-0.177,0.445h-0.269
						c-0.534,0.089-1.424,0-2.584-0.267c-1.068-0.268-1.78-0.445-2.315-0.445c-1.248,0.088-2.049,0.712-2.315,2.048h-0.625
						c-0.088,0-0.266-0.089-0.445-0.178c-0.178-0.269-0.266-0.446-0.266-0.622l0.088-0.536c0.445-0.178,0.623-0.445,0.623-0.712
						c0-0.179-0.177-0.356-0.623-0.624c-0.268-0.354-0.445-0.445-0.535-0.445c-0.802-0.089-1.692,0.713-2.671,2.317
						c-0.357,0-0.713-0.447-1.159-1.248c-0.445,0.178-0.979,0.267-1.424,0.267c-0.802,0-1.158-0.445-1.068-1.336v-2.048
						c-0.179-0.802-0.713-1.248-1.604-1.248l-0.891,0.178l-0.089-0.267c0-0.713,0.267-1.069,0.802-1.069l0.535,0.091
						c0.266,0.266,0.445,0.354,0.71,0.354c0.18,0,0.537-0.178,0.982-0.711l0.711-0.979c-0.445,0-0.98-0.091-1.603-0.269
						c-0.712-0.177-1.158-0.533-1.158-0.979l0.178-1.336c0.09-0.534,0.09-0.979,0.09-1.247c0-0.979-0.536-1.513-1.693-1.692
						c0.178-0.892,0.266-1.514,0.266-2.047c0-0.981-0.533-1.781-1.69-2.407c0,0.181,0,0.446,0,0.715
						c0,0.711-0.356,1.424-1.159,2.137c-0.802,0.801-1.158,1.514-1.158,1.959c0,0.356,0.178,0.802,0.445,1.336
						c0,0.534-0.177,1.335-0.622,2.404c-0.357,0.981-0.624,1.872-0.624,2.494c0,0.803,0.266,1.425,0.624,2.05
						c0.445-0.091,0.712,0,0.979,0.177c0.268,0.09,0.356,0.269,0.356,0.624v0.535c-1.513-0.269-2.76-0.091-3.831,0.445
						c0.091,0.534,0.091,1.067,0.091,1.602c-0.091,0.714-0.356,1.069-0.803,0.98c-0.356,0.089-0.89,0-1.424-0.267
						c-0.802-0.268-1.336-0.357-1.604-0.445c-0.445,0.088-0.891,0.267-1.158,0.712c0.09,0.445,0.09,0.712,0,0.98
						c-0.178,0.178-0.355,0.355-0.712,0.355h-0.624l-0.089-0.624c0-0.354,0.089-0.623,0.179-0.979l0.266-0.445
						c-0.089-0.356-0.445-0.713-1.068-1.069l-1.069,0.713c0.179,1.246,0,1.87-0.713,1.87h-0.623
						c0.089-2.227-0.179-3.384-0.891-3.384c-0.356,0-0.801,0.355-1.069,1.067c-0.446,0.715-0.802,1.069-1.247,1.069l-0.623-0.267
						c0.177-0.892,0.267-1.515,0.267-1.87c0.09-0.802-0.267-1.604-0.8-2.317c-0.357,0.091-0.713,0.091-0.891,0
						c-0.357-0.089-0.535-0.354-0.446-0.711v-0.534c0.178-0.179,0.446-0.269,0.624-0.269c0.268,0,0.623,0.178,0.89,0.445
						c0.357,0.27,0.624,0.357,0.802,0.357c0.534,0.088,0.89-0.269,0.89-1.07c0-0.444-0.445-1.068-1.335-2.048
						c-0.089,0.446-0.357,0.622-0.445,0.622c-0.445,0-0.891-0.444-1.426-1.335c0.802-0.623,1.247-1.425,1.337-2.315
						c-0.091-0.622-0.536-0.979-1.337-1.158c-0.89-0.178-1.246-0.355-1.246-0.8v-0.714h0.534c0.268,0,0.624,0.089,1.159,0.357
						c0.355,0.089,0.711,0.176,0.979,0.176c0.266,0,0.445-0.355,0.445-1.155c-0.802,0.177-1.336,0-1.781-0.445
						c-0.444-0.536-0.713-1.159-0.713-1.962c0-0.356,0.179-0.891,0.624-1.869c0.089-0.178,0.178-0.445,0.178-0.534
						c0-0.445-0.445-0.802-1.336-0.979c-0.712-0.091-1.068-0.178-1.068-0.269c0-0.177,0.089-0.355,0.267-0.621l1.959,1.156
						c0.535-0.267,0.892-0.803,0.892-1.603l-0.09-1.069c-0.355-0.356-0.802-0.534-1.425-0.802c-0.623-0.267-1.069-0.624-1.336-0.98
						c0.802-0.445,1.158-0.979,1.158-1.781c0-0.088-0.088-0.534-0.356-0.979c-0.088-0.713-0.088-1.248-0.088-1.604
						c0-0.445,0.088-0.891,0.534-1.158l-1.782-1.335l-0.178-1.604c0-0.445,0.178-1.156,0.446-2.227
						c0.356-1.068,0.445-1.781,0.445-2.226c0-1.158-0.624-2.049-1.871-2.673c0.712-0.711,1.157-1.781,1.069-3.206
						c0-1.87,0.088-2.939,0.088-3.207l1.248-0.712c0.444-0.089,0.891,0.179,1.246,0.712c-0.712,0.803-1.158,1.425-1.158,1.96
						c0,0.445,0.178,0.713,0.445,0.713c0.712-0.09,1.514-0.624,2.138-1.782c0.533-1.157,1.247-1.692,1.78-1.603
						c0.357-0.089,0.802,0.088,1.248,0.356c0.445,0.268,0.801,0.445,1.068,0.445c0.713,0.09,1.247-0.623,1.604-1.87
						c0.266,0.446,0.444,0.891,0.444,1.336c-0.267,0.179-0.355,0.445-0.267,0.802c-0.089,0.446,0.177,1.247,0.801,2.316l1.693-0.179
						c0.266,0.089,0.445,0.267,0.445,0.535l-0.09,0.801l-0.712,0.09c-0.357,0-0.713-0.09-1.07-0.178
						c-0.445-0.268-0.801-0.357-0.89-0.357c-0.445,0.089-0.891,0.445-1.158,1.158c0.268,0.713,0.713,0.979,1.248,0.979l1.158-0.178
						c0.268,0,0.534,0.357,0.713,1.068c-0.89,0.624-1.424,1.426-1.336,2.583c-0.088,0.714,0.446,1.159,1.336,1.07h0.979
						c0.356,0.089,0.534,0.266,0.534,0.623l-0.266,0.624l-0.536,0.179c-0.355,0-0.712-0.09-0.98-0.179l-0.711-0.177
						c-0.268,0-0.625,0.267-0.892,0.711l0.535,1.961l1.336,0.178c0.534,0,0.802,0.179,0.802,0.444c0,0.356-0.357,0.892-1.07,1.693
						c0.268,0.979,0.625,1.781,0.98,2.226h0.268c0.445,0,0.979-0.445,1.425-1.335c-0.088-0.623,0.268-1.248,1.158-1.871
						c0.891-0.713,1.336-1.248,1.336-1.692c0-0.446-0.534-0.979-1.692-1.604c0.803-0.355,1.158-1.247,1.158-2.582v-1.159
						c0-1.068,0.267-1.87,0.712-2.404c-0.089-0.179-0.535-0.445-1.336-0.624c-0.711-0.178-1.068-0.357-0.979-0.534
						c0-0.178,0.178-0.356,0.445-0.713l1.158,0.713l0.98-0.891c0.266-0.445,0.444-0.891,0.444-1.247
						c0-0.711-0.356-1.069-1.069-1.069c-0.8-0.089-1.157-0.267-1.157-0.624l0.178-0.713c0.624,0.268,1.247,0.357,1.693,0.357
						l2.672-0.802c-0.089-0.89,0.268-1.336,1.068-1.336h0.268v0.446c0,0.178,0,0.445-0.089,0.979
						c-0.179,0.268-0.179,0.535-0.179,0.713c0,0.267,0.268,0.623,0.89,0.979l1.337-0.624v-1.158c0-0.623,0.09-0.89,0.356-0.89
						l0.801,0.178v0.534l-0.268,0.981c-0.088,0.446-0.088,0.891-0.088,1.247c0,0.713,0.267,1.069,0.891,1.069
						c0.713-0.09,1.158-0.624,1.514-1.782c0.267-1.157,0.623-1.692,0.892-1.603c0.445-0.089,0.979,0.179,1.602,0.712v0.534
						c0,0.536-0.445,1.248-1.247,2.139l1.692,1.157c0.714,0.536,1.07,0.981,0.98,1.515c0.09,0.535-0.446,1.068-1.425,1.692
						l0.356,3.385c0.178,1.424,0.891,2.138,1.87,2.227v0.534c0.089,0.536-0.266,1.247-1.067,2.049c0,0.446,0.177,0.803,0.623,1.247
						c-0.534,0.624-0.802,1.248-0.711,1.871c-0.091,0.803,0.445,1.159,1.603,1.159c0.624,0.089,0.979-0.268,1.069-0.891v-1.604
						h1.603c0.625,0,1.07-0.178,1.424-0.535l-0.711-1.335c-1.336,0.178-1.961,0-1.961-0.713l0.179-0.623h2.048
						c0.714-0.088,1.336-0.534,1.604-1.158c-0.445,0-1.068-0.089-1.604-0.267c-0.8-0.357-1.246-0.714-1.246-1.07
						c0-0.624,0.267-1.336,0.892-2.316c0.445-1.068,0.711-1.959,0.8-2.583c0.356-0.177,0.536-0.534,0.625-0.89
						c-0.089-0.356-0.269-0.802-0.625-1.157c-0.354-0.536-0.534-0.892-0.623-1.159c-0.177,0-0.356,0-0.534,0h-0.179
						c0,0.089-0.088,0.089-0.177,0.178l-0.534,0.357c-0.179,0-0.268-0.179-0.446-0.625l1.157,0.089
						c0.269-0.089,0.446-0.089,0.625-0.089l0.088,0.089c0.979-0.089,1.604-0.446,1.781-1.158c-0.356-1.425-0.089-2.227,0.714-2.494
						c0.89,0.357,1.87,0.534,2.938,0.445c1.158-0.088,2.049-0.088,2.583,0c0.268,0.089,0.623,0.534,0.979,1.158
						c0.535,0.624,1.07,0.98,1.693,0.891h0.713c0.088,0.268,0.088,0.534,0.088,0.89c0,0.446-0.088,0.981-0.356,1.781
						c-0.268,0.624-0.445,1.159-0.445,1.515c0,0.534,0.445,0.801,1.159,0.801h1.246l0.179,0.713
						C176.087,48.455,175.998,48.633,175.641,48.545z"/>
				</g>
			</g>
		</g>
	</g>
	<g>
		<path fill="#FFFFFF" d="M132.329,103.166c0-1.258,0.203-2.116,0.61-2.575c0.406-0.458,1.197-0.688,2.375-0.688h8.889
			c1.186,0,1.979,0.229,2.382,0.688c0.403,0.459,0.604,1.317,0.604,2.575v7.313c0,1.27-0.206,2.133-0.617,2.592
			c-0.411,0.457-1.2,0.687-2.368,0.687h-8.889c-1.177,0-1.969-0.229-2.375-0.687c-0.407-0.459-0.61-1.322-0.61-2.592V103.166z
			 M135.129,111.103h9.261v-8.655h-9.261V111.103z"/>
		<path fill="#FFFFFF" d="M151.352,113.758V99.903h10.35c0.954,0,1.643,0.211,2.063,0.632c0.42,0.421,0.629,1.107,0.629,2.057v3.071
			c0,0.949-0.211,1.635-0.636,2.057c-0.425,0.42-1.11,0.632-2.056,0.632h-7.589v5.406H151.352z M160.506,102.286h-6.394v3.681h6.394
			c0.487,0,0.821-0.086,1.002-0.256c0.182-0.171,0.273-0.459,0.273-0.865v-1.438c0-0.405-0.091-0.693-0.273-0.864
			C161.327,102.371,160.993,102.286,160.506,102.286z"/>
		<path fill="#FFFFFF" d="M167.735,113.758V99.903h2.787v13.854H167.735z"/>
		<path fill="#FFFFFF" d="M174.962,113.758V99.903h1.925l9.751,9.198v-9.198h2.534v13.854h-1.937l-9.725-9.343v9.343H174.962z"/>
		<path fill="#FFFFFF" d="M193.628,113.758V99.903h2.787v13.854H193.628z"/>
		<path fill="#FFFFFF" d="M200.856,113.758V99.903h12.326v2.448h-9.499v3.022h5.532v2.384h-5.532v3.408h9.646v2.592H200.856z"/>
		<path fill="#FFFFFF" d="M226.258,103.166c0-1.258,0.204-2.116,0.612-2.575c0.404-0.458,1.195-0.688,2.373-0.688h8.889
			c1.187,0,1.98,0.229,2.382,0.688c0.403,0.459,0.604,1.317,0.604,2.575v7.313c0,1.27-0.205,2.133-0.617,2.592
			c-0.411,0.457-1.2,0.687-2.368,0.687h-8.889c-1.178,0-1.969-0.229-2.373-0.687c-0.408-0.459-0.612-1.322-0.612-2.592V103.166z
			 M229.059,111.103h9.261v-8.655h-9.261V111.103z"/>
		<path fill="#FFFFFF" d="M255.124,113.758V99.903h12.193v2.479h-9.367v3.616h5.042v2.576h-5.042v5.183H255.124z"/>
		<path fill="#FFFFFF" d="M269.383,113.758V99.903h2.787v13.854H269.383z"/>
		<path fill="#FFFFFF" d="M276.611,113.758V99.903h10.35c0.946,0,1.632,0.211,2.057,0.632s0.637,1.107,0.637,2.057v3.262
			c0,0.939-0.212,1.618-0.637,2.034c-0.425,0.415-1.11,0.624-2.057,0.624h-1.579l5.465,5.246h-4.02l-4.815-5.246h-2.64v5.246
			H276.611z M285.766,102.286h-6.395v3.84h6.395c0.485,0,0.819-0.084,1.001-0.255c0.182-0.172,0.272-0.459,0.272-0.864v-1.6
			c0-0.405-0.091-0.693-0.272-0.864C286.585,102.371,286.251,102.286,285.766,102.286z"/>
		<path fill="#FFFFFF" d="M293.592,113.758V99.903h2.241l5.625,8.225l5.601-8.225h2.255v13.854h-2.6v-9.534l-5.135,7.871h-0.545
			l-5.201-7.647v9.311H293.592z"/>
		<path fill="#FFFFFF" d="M312.005,113.758l6.818-13.854h2.693l6.926,13.854h-3.145l-1.445-3.039h-7.603l-1.447,3.039H312.005z
			 M317.444,108.191h5.268l-2.681-5.776L317.444,108.191z"/>
		<path fill="#FFFFFF" d="M340.7,102.447h-7.549v8.655h7.549v-2.944l2.825,0.688v1.634c0,1.259-0.207,2.119-0.622,2.583
			c-0.416,0.464-1.212,0.695-2.389,0.695h-7.178c-1.159,0-1.946-0.229-2.361-0.687c-0.417-0.459-0.624-1.322-0.624-2.592v-7.313
			c0-1.258,0.205-2.116,0.617-2.575c0.411-0.458,1.2-0.688,2.368-0.688h7.178c1.185,0,1.983,0.229,2.396,0.688
			c0.411,0.459,0.615,1.317,0.615,2.575v1.345l-2.825,0.496V102.447z"/>
		<path fill="#FFFFFF" d="M347.451,113.758V99.903h2.826v5.264h8.742v-5.264h2.801v13.854h-2.801v-5.839h-8.742v5.839H347.451z"/>
	</g>
</g>
</svg>
